<svg id="Layer_1" data-name="Layer 1" xmlns="http://www.w3.org/2000/svg" viewBox="0 0 435 325"><defs><style>.cls-1{fill:#1a1837;}</style></defs><title>bac</title><path class="cls-1" d="M235.51,193.22v0c0-.65-.52-1-1.45-1H232v2.18h2C234.88,194.33,235.51,194,235.51,193.22Z"/><path class="cls-1" d="M234.27,195.56H232v2.26h2.4c1,0,1.59-.39,1.59-1.13v0C236,196,235.41,195.56,234.27,195.56Z"/><polygon class="cls-1" points="176.69 175.83 176.64 175.83 175.54 179.15 177.79 179.15 176.69 175.83"/><path class="cls-1" d="M217.5,157.71a404.26,404.26,0,0,0-65.89,5.42l1,42.91,64.92,25.57L282.42,206l1-42.91A404.26,404.26,0,0,0,217.5,157.71Zm40.85,16a3.16,3.16,0,0,1,2.65,1.11l.31-1.08h1.41v3.71H261.1c-.53-1.73-1.25-2.49-2.39-2.49s-2,.93-2,3.52.93,3.46,2.4,3.46c1.27,0,2-.94,2.25-2.46h1.5c-.24,2.35-1.47,3.92-4.11,3.92-3,0-4.89-1.84-4.89-4.75A4.62,4.62,0,0,1,258.35,173.74Zm-12.64,8.12h1.18v-6.55h-1.18V174h5v1.35h-1.18v6.55h1.18v1.34h-5Zm-24.2,0h1.13v-6.55h-1.13V174h9.05v3.42h-1.45c-.29-1.82-.53-2.11-1.75-2.11H225.3v2.62H226c.67,0,.73-.15.88-1.23h1.25v3.78h-1.25c-.12-1.07-.22-1.24-.88-1.24h-.67v2.7h2c1.51,0,1.69-.54,1.94-2.5h1.45v3.8h-9.18Zm-49.39,0h1l2.87-8h2.68l2.91,8h1v1.34h-5.08v-1.34h1.16l-.49-1.48h-3.07l-.49,1.48h1.16v1.34h-3.69Zm21.32,13.48H172.1v-.67h21.34Zm.34-17.47h-1.3c-.45-2.38-.68-2.74-1.77-2.74h-.24v6.73h1.38v1.34h-5.41v-1.34h1.38v-6.73h-.24c-1.1,0-1.32.36-1.77,2.74H184.5V174h9.28Zm8,21.37a4.14,4.14,0,0,1-4.2-4.23v0a4.17,4.17,0,0,1,4.25-4.26,4.32,4.32,0,0,1,3.23,1.28l-.93,1.07a3.29,3.29,0,0,0-2.31-1A2.77,2.77,0,0,0,199.1,195v0a2.79,2.79,0,0,0,2.72,2.93,3.24,3.24,0,0,0,2.37-1.07l.93.94A4.23,4.23,0,0,1,201.78,199.24Zm5.71-23.93h-1.14v6.55h1.14v1.34h-5v-1.34h1.22v-2.77h-3.34v2.77h1.22v1.34h-5v-1.34h1.13v-6.55h-1.13V174h5v1.35h-1.22v2.43h3.34v-2.43h-1.22V174h5Zm7.58,23.79h-5.78v-8.24h1.45v6.92h4.33Zm3.64-15.9H210.3v-1.34h1.14v-6.55H210.3V174h5.11v1.31h-1.32v6.63h1.43c1.1,0,1.33-.3,1.91-2.67h1.28Zm7.2,12.34c0,2.46-1.39,3.69-3.54,3.69s-3.51-1.23-3.51-3.62v-4.75h1.45v4.69c0,1.53.79,2.35,2.08,2.35s2.07-.77,2.07-2.29v-4.75h1.45Zm11.5,1.3c0,1.48-1.21,2.26-3,2.26h-3.82v-8.24h3.7a3,3,0,0,1,2.15.73A1.84,1.84,0,0,1,237,193v0a2,2,0,0,1-1.18,1.84,2,2,0,0,1,1.63,2Zm3.42-15v1.34h-5.41v-1.34h1.38v-6.73h-.24c-1.1,0-1.32.36-1.77,2.74h-1.31V174h9.28v3.91h-1.3c-.45-2.38-.68-2.74-1.77-2.74h-.24v6.73Zm22.07,13.48H241.56v-.67H262.9Z"/><path class="cls-1" d="M130.22,167.27l-.7.15-5.24-23.64h-6.67l4.71,13.41-4.23,13h17.72l-.07-4.12Q133,166.66,130.22,167.27Z"/><path class="cls-1" d="M317.39,143.78h-6.67l-5.24,23.64-.7-.15q-2.76-.61-5.52-1.18l-.07,4.12h17.72l-4.23-13Z"/><path class="cls-1" d="M286.07,163.59l-.93,44.31L217.5,234.46,149.86,207.9l-.93-44.31-2.67.47,1,45.68,70.28,27.61,70.28-27.61,1-45.68Z"/><path class="cls-1" d="M167.53,140.22c-.19-1.65-1.52-2.36-3.52-2.1l-4.06.53c.22,1.67.45,3.34.68,5l4.1-.54c2-.24,3-1.37,2.81-2.85A.09.09,0,0,1,167.53,140.22Z"/><path class="cls-1" d="M210.11,134.58a5.38,5.38,0,0,0-5.46,5.62v.05a5.53,5.53,0,0,0,5.7,5.41,5.43,5.43,0,0,0,5.46-5.55v-.05A5.46,5.46,0,0,0,210.11,134.58Z"/><path class="cls-1" d="M191.76,140.85a5.45,5.45,0,0,0-6-5.15,5.37,5.37,0,0,0-5.13,5.93v.05a5.51,5.51,0,0,0,6,5.06,5.42,5.42,0,0,0,5.13-5.84Z"/><path class="cls-1" d="M217.5,124.37a436.89,436.89,0,0,0-93.78,10.19l6.9,31.13a404.93,404.93,0,0,1,173.76,0l6.9-31.13A436.89,436.89,0,0,0,217.5,124.37Zm-71.12,30.68c-2.84.5-5.67,1-8.5,1.58q-1.71-8.64-3.41-17.29,4.32-.84,8.66-1.61a7.06,7.06,0,0,1,5.14.71,3.88,3.88,0,0,1,1.75,2.75v.05a4.14,4.14,0,0,1-1.81,4.15c2.25.42,3.74,1.38,4.11,3.72v0C152.84,152.34,150.42,154.34,146.38,155.05Zm22.44-3.3c-1.51-1.71-3-3.41-4.58-5.11l-3.15.42c.25,1.86.51,3.72.76,5.58l-4,.56q-1.26-8.72-2.54-17.43,4.28-.63,8.57-1.17a7.74,7.74,0,0,1,5.68,1.12,5.34,5.34,0,0,1,2,3.83v0a5.56,5.56,0,0,1-3.34,5.88q2.61,2.85,5.15,5.75C171.91,151.39,170.37,151.57,168.82,151.75Zm18-1.44c-5.55.42-9.95-3.2-10.46-8.19v-.05c-.51-5,3.31-9.5,9.15-9.93s10.24,3.42,10.47,8.42v.05C196.25,145.61,192.4,149.9,186.85,150.31Zm33.21-10.24c-.05,5-4.13,9.07-9.7,9.16s-9.73-3.77-10-8.77v-.05c-.22-5,3.85-9.3,9.7-9.4s10,4,10,9Zm21.53,9.5-4.79-.25q-2.62-3.88-5.36-7.72c-.73.68-1.47,1.36-2.19,2.05L229.1,149l-4-.09q.16-8.81.32-17.62l4.16.1q-.1,3.84-.22,7.7,3.87-3.75,7.88-7.42l5,.26q-4,3.51-8,7.1Q238,144.28,241.59,149.57Zm18,1.45c-4.33-.44-8.65-.82-13-1.12q.63-8.79,1.25-17.58l4.14.31q-.56,7-1.13,14.05c3,.25,6.06.52,9.09.83Zm12.16-5.65q-.47,3.48-.91,7l-4-.5c.27-2.3.55-4.59.83-6.89q-2.88-5.73-5.95-11.41c1.61.17,3.23.34,4.84.53q1.83,3.76,3.6,7.56,2.68-3.24,5.44-6.43l4.69.67Q275.92,140.57,271.72,145.37Zm25.4,11.26-3.34-.64q-3.3-6.33-6.83-12.59-.93,5.52-1.84,11l-3.9-.63,2.73-17.41,3.79.61q3.5,6.09,6.76,12.21,1-5.32,2-10.66l4,.77Q298.82,148,297.12,156.63Z"/><path class="cls-1" d="M146.1,142.56v-.05c-.19-1.14-1.26-1.63-3-1.32-1.34.23-2.68.48-4,.73l.69,3.66,3.72-.68C145.28,144.58,146.32,143.85,146.1,142.56Z"/><path class="cls-1" d="M148.29,149.28c-.2-1.16-1.23-1.73-3.29-1.37-1.55.27-3.09.55-4.63.84.24,1.27.47,2.54.71,3.81,1.57-.3,3.14-.58,4.72-.86,1.75-.3,2.71-1.07,2.49-2.37Z"/><path class="cls-1" d="M217.4,251.65a10.08,10.08,0,1,0,10.08,10.08A10.08,10.08,0,0,0,217.4,251.65Zm5,10.68v.05l0,.05,0,.2,0,.14v.06l0,.07,0,.13,0,.07,0,.06h0a3.44,3.44,0,0,0-.78.47v-.06l0-.06-.06,0h-.06l-.06,0,0,.05,0,.07,0,.06,0,.05h0a.2.2,0,0,1-.16.32h0l-1,.63a.92.92,0,0,0-.29.23,1.59,1.59,0,0,0-.26.41,1.6,1.6,0,0,0,.22,1.68h0a.26.26,0,0,1-.42.17h0a.78.78,0,0,0-.61-.1,1.83,1.83,0,0,0-.78-.31,2.44,2.44,0,0,1-.5-1.11h0a5.33,5.33,0,0,1-1.13-1.65h0a1.31,1.31,0,0,0-1.36-.56h0a.65.65,0,0,0-.38.6h0l0,.06-.06.05-.06,0-.07,0-.08,0h-.15l-.08,0-.07,0-.06,0-.06-.06h-.06a1.27,1.27,0,0,1-.65-.56,1.13,1.13,0,0,1-.15-.47,1.12,1.12,0,0,0-.18-.4,1.3,1.3,0,0,0-.57-.49h0a1.32,1.32,0,0,1-.76-1l2.91.05V256.9l2.39,0,.09,1.85a.57.57,0,0,1,.37.12h0a.2.2,0,0,1,.2,0l0,0,0,0,0,0,.07,0a1.3,1.3,0,0,0,.8.12h0a1,1,0,0,0,.85.21h0a.6.6,0,0,1,.63.07,1.82,1.82,0,0,0,.51-.18h0l.06,0h.38l.07,0H221l.06,0,.06,0,.06,0,.05,0,.05,0h.06a2.94,2.94,0,0,0,.49.08l.14,1.54a.68.68,0,0,1,.35.51.48.48,0,0,1,.22.3.52.52,0,0,1-.16.48Z"/><path class="cls-1" d="M136.72,252.65l1.05.33q.76-2.37,1.52-4.75l-1-.33c.07-.2.13-.4.2-.6l2.86.92c-.06.2-.13.4-.19.59l-.88-.27c-.21.67-.42,1.34-.64,2l2.83.88c.2-.67.41-1.34.61-2l-.89-.27c.07-.2.13-.4.19-.59l2.87.86c-.06.2-.11.4-.17.6l-1-.31c-.48,1.6-.95,3.19-1.43,4.78l1.06.32-.18.6-2.94-.89.18-.6.9.28c.23-.74.45-1.49.68-2.23l-2.83-.88c-.24.74-.47,1.48-.7,2.22l.9.29c-.07.2-.13.4-.19.59-1-.3-2-.61-2.93-.93C136.59,253,136.66,252.84,136.72,252.65Z"/><path class="cls-1" d="M146.87,253.13a3.23,3.23,0,0,1,3.9-2.32,3.27,3.27,0,1,1-3.9,2.32Zm5,1.35c.42-1.61,0-2.73-1.23-3.06s-2.16.43-2.6,2,0,2.74,1.22,3.08S151.41,256.08,151.84,254.48Z"/><path class="cls-1" d="M156.05,256.82c.3-1.21.59-2.42.88-3.63L156,253l.15-.61c.93.24,1.86.46,2.79.68-.05.2-.09.4-.14.61l-.93-.22c-.26,1.11-.52,2.21-.79,3.32s.23,1.77,1.4,2a1.57,1.57,0,0,0,1.25-.17c.4-.24.56-.63.71-1.32.24-1,.47-2.08.7-3.11l-1-.22c0-.21.09-.41.14-.61l2.56.57c-.05.2-.09.41-.14.61l-.89-.2-.81,3.64c-.23,1-1.34,1.8-3,1.41S155.77,258,156.05,256.82Z"/><path class="cls-1" d="M164.62,258.5l.58.12c.45,1.39.81,1.89,1.71,2.07s1.29-.14,1.41-.78-.64-1.11-1.45-1.53-1.92-1-1.66-2.26a1.91,1.91,0,0,1,2.32-1.38,2.18,2.18,0,0,1,1.41.95l.32-.58.63.12c-.14.71-.27,1.42-.41,2.12l-.57-.11c-.35-1.32-.83-1.79-1.54-1.93a.91.91,0,0,0-1.17.73c-.17.83.63,1.19,1.47,1.58s1.89.9,1.66,2.15a2,2,0,0,1-2.52,1.5,2.45,2.45,0,0,1-1.64-1l-.36.59-.64-.13Z"/><path class="cls-1" d="M173.07,261.64l1.13.19.84-5-.42-.07c-.84-.14-1.06.1-1.78,1.41l-.45-.08.39-2.18c1.89.33,3.78.65,5.68.94-.11.73-.23,1.46-.34,2.19l-.45-.07c-.25-1.47-.39-1.77-1.23-1.9L176,257c-.27,1.67-.55,3.34-.82,5l1.13.19c0,.2-.07.41-.1.62l-3.27-.55C173,262.05,173,261.84,173.07,261.64Z"/><path class="cls-1" d="M180.52,260.29a3.21,3.21,0,0,1,3.54-2.81,3.14,3.14,0,0,1,2.69,3.63A3.19,3.19,0,0,1,183.2,264,3.14,3.14,0,0,1,180.52,260.29Zm5.07.68c.2-1.65-.36-2.71-1.61-2.87s-2.07.72-2.3,2.36.33,2.72,1.61,2.88S185.38,262.62,185.59,261Z"/><path class="cls-1" d="M191.36,259.75h-.08l-.45,4.33,1,.1-.06.62-2.74-.28c0-.21,0-.42.07-.62l1,.1c.17-1.65.35-3.31.52-5l-1-.1c0-.21.05-.42.07-.63l2.09.22c.9,1.62,1.83,3.23,2.77,4.84h.09c.11-1.31.23-2.61.34-3.92l-1-.09.06-.62,2.67.23c0,.21,0,.42-.05.63l-1-.08c-.16,1.91-.33,3.83-.49,5.74l-.74-.06Q192.9,262.5,191.36,259.75Z"/><path class="cls-1" d="M238.82,262.05a3.21,3.21,0,0,1,2.71-3.51,2.34,2.34,0,0,1,1.82.56c0-.24.07-.48.1-.71l.64-.07c.08.81.17,1.62.25,2.43l-.58.06c-.55-1.08-1.27-1.73-2.12-1.65-1.06.1-1.82.9-1.66,2.74s1,2.61,2.28,2.48a2,2,0,0,0,1.78-2.17l.69-.07a2.73,2.73,0,0,1-2.57,2.92A3.06,3.06,0,0,1,238.82,262.05Z"/><path class="cls-1" d="M247.77,263.69l1.08-.13-.6-5-1.06.13c0-.21-.05-.41-.07-.62,1-.12,2-.23,2.95-.36,0,.2.05.41.08.62l-.91.11c.09.7.17,1.4.26,2.09,1-.12,1.94-.24,2.9-.38-.09-.69-.19-1.39-.28-2.08l-.91.12c0-.21-.05-.41-.08-.62l3-.41.09.62-1.06.15.69,4.94,1.08-.15.09.62-3,.42c0-.21-.06-.42-.08-.62l.92-.13c-.1-.77-.21-1.54-.31-2.31l-2.91.38c.09.77.19,1.54.29,2.31l.92-.11c0,.21.06.41.08.62l-3,.37C247.81,264.1,247.79,263.89,247.77,263.69Z"/><path class="cls-1" d="M261.31,260.16l-2.3.38-.33,1.64.81-.13c0,.21.07.41.1.62l-2.25.36c0-.21-.07-.42-.1-.62l.69-.11q.68-3,1.31-5.94l1-.16c1,1.75,2,3.48,3,5.22l.88-.16c0,.2.08.41.11.61l-3,.53c0-.21-.07-.41-.11-.62l1-.17C261.86,261.13,261.59,260.64,261.31,260.16Zm-2.17-.19,1.89-.32-1.32-2.37h0Z"/><path class="cls-1" d="M266.37,260.84l1.08-.21c-.32-1.63-.63-3.26-.95-4.9l-1.06.21c0-.21-.08-.41-.11-.62l2.73-.53c1.93-.4,2.79.3,3,1.21s-.17,2-2.18,2.38l-.8.16c.13.63.25,1.26.38,1.89l1.18-.23.12.61c-1.08.22-2.17.44-3.26.64Zm2.32-3c1.25-.25,1.39-.85,1.24-1.58s-.55-1.09-1.74-.85l-.71.14L268,258Z"/><path class="cls-1" d="M276,258.82l1.12-.26c-.39-1.65-.77-3.3-1.16-4.95l-.42.09c-.83.2-.94.5-1.1,2l-.44.1c-.17-.72-.33-1.45-.49-2.17q2.82-.63,5.62-1.33l.54,2.16-.45.11c-.8-1.26-1-1.48-1.87-1.28l-.42.1c.39,1.65.79,3.29,1.18,4.94l1.12-.27c0,.21.09.41.14.61l-3.23.77C276.11,259.22,276.06,259,276,258.82Z"/><path class="cls-1" d="M283.33,257l1.06-.28c-.43-1.61-.85-3.22-1.28-4.83l-1,.28c-.05-.21-.1-.41-.16-.61,1.82-.47,3.64-1,5.45-1.48.18.65.37,1.3.55,1.95l-.45.13c-.64-1-.81-1.23-1.53-1l-1.85.5c.19.7.37,1.39.56,2.07l.65-.17c.7-.19.76-.31.71-1.19l.5-.14.66,2.4-.5.14c-.4-.83-.53-.89-1.23-.7l-.66.18c.21.74.41,1.49.61,2.23l1.84-.5c.84-.23.87-.55.87-1.9l.45-.13c.2.72.41,1.43.61,2.14-1.89.54-3.77,1.05-5.67,1.54Z"/><path class="cls-1" d="M294,254l1-.32c.06.2.12.4.19.6-1,.32-2.05.63-3.07.93l-.18-.6,1.06-.31-1.44-4.78-1,.31-.18-.6,3-.91c1.86-.58,2.62,0,2.86.8s0,1.38-1.11,1.94l0,.08c1-.1,1.45.26,1.69.87l.27.64c.12.29.24.37.41.32s.23-.21.3-.52l.48.06a1.19,1.19,0,0,1-.8,1.16A1,1,0,0,1,296,253l-.24-.72c-.22-.61-.46-.88-1.35-.6l-1.08.33Zm.2-2.88c1-.31,1.17-.84.94-1.58s-.62-.92-1.5-.65l-1.1.34c.22.73.45,1.46.67,2.19Z"/><path class="cls-1" d="M251.19,78.93a33.79,33.79,0,0,0-67.38,0L144.53,82.1l1,46.77,2.67-.43-.92-43.87,36.43-2.95c0,1,.05,1.93.13,2.88l-33.93,3,.92,40.56a436.76,436.76,0,0,1,133.36,0l.92-40.56-33.94-3c.09-1,.14-1.91.14-2.88l36.43,2.94-.92,43.87,2.67.43,1-46.77ZM217.5,50.45a31.12,31.12,0,1,1-31.12,31.12A31.15,31.15,0,0,1,217.5,50.45Z"/><path class="cls-1" d="M216.57,92.93c-.2,0-.27.17-.27.71s.09.71.29.71.27-.18.27-.71S216.77,92.93,216.57,92.93Z"/><path class="cls-1" d="M205.63,79.47h-1.34v1.16h1.37c.52,0,.82-.18.82-.57v0C206.48,79.69,206.22,79.47,205.63,79.47Z"/><path class="cls-1" d="M206.19,78h0c0-.35-.27-.54-.76-.54h-1.14v1.11h1.07C205.87,78.51,206.19,78.34,206.19,78Z"/><polygon class="cls-1" points="217.48 66.06 216.79 67.77 218.18 67.77 217.48 66.06"/><path class="cls-1" d="M217.5,53.13a28.44,28.44,0,1,0,28.43,28.44A28.47,28.47,0,0,0,217.5,53.13ZM217,64.68H218L220.29,70h-1.21l-.48-1.18h-2.23L215.89,70h-1.18Zm-9.34,15.51h0c0,1-.78,1.44-2,1.44h-2.5V76.38h2.44a1.92,1.92,0,0,1,1.38.47,1.2,1.2,0,0,1,.36.89v0a1.23,1.23,0,0,1-.69,1.13A1.29,1.29,0,0,1,207.63,80.19Zm9.18-1.27L203,65.13l.69-.69,13.8,13.8,13.8-13.8.68.69L218.19,78.92,232,92.72l-.69.69-13.8-13.8-13.8,13.8-.69-.69Zm12.91,1.75a1.88,1.88,0,0,0,1.38-.62l.74.74a2.7,2.7,0,0,1-2.16.94A2.65,2.65,0,0,1,227,79v0a2.68,2.68,0,0,1,2.75-2.72,2.71,2.71,0,0,1,2.07.81l-.74.85a1.92,1.92,0,0,0-1.34-.59A1.56,1.56,0,0,0,228.19,79h0A1.57,1.57,0,0,0,229.72,80.67Zm-16.19,9.27v-.32h2.14v.8h-.34c-.07-.43-.12-.49-.41-.49h-.49v.62h.16c.16,0,.17,0,.21-.3h.29v.9h-.29c0-.25-.06-.29-.21-.29h-.16v.64h.47c.36,0,.4-.13.46-.6h.34v.91h-2.17v-.32h.27V89.94Zm-15.8,1.52,2-2,.69.69-2,2Zm1.21,1.2,2-2,4.83,4.83-2,2Zm6,6-.69-.68,2-2,.69.68Zm9.84-4.06c-.42,0-.54-.36-.75-.36H214s.07.07.07.14a.21.21,0,0,1-.23.21.31.31,0,0,1-.31-.35c0-.29.22-.48.59-.67s.42-.22.42-.44-.09-.27-.31-.27A.41.41,0,0,0,214,93a.26.26,0,0,1,.18.24.26.26,0,0,1-.28.26.29.29,0,0,1-.31-.31c0-.26.3-.51.8-.51s.84.25.84.56-.33.47-.67.55-.62.15-.71.39h0a.61.61,0,0,1,.42-.14c.24,0,.41.08.59.08s.17-.07.21-.27l.21,0C215.25,94.43,215.09,94.63,214.81,94.63Zm1.77,0a.89.89,0,0,1-.92-1,.91.91,0,0,1,.92-1,.89.89,0,0,1,.93,1A.91.91,0,0,1,216.58,94.63Zm.46-3-.08.27h-.32V91H217a.64.64,0,0,0,.67.52c.23,0,.35-.11.35-.26s-.19-.21-.54-.29-.79-.21-.79-.71a.74.74,0,0,1,.8-.73.69.69,0,0,1,.57.25l.07-.24h.32v.79h-.33c-.11-.34-.27-.49-.56-.49s-.34.12-.34.26.22.23.56.3.77.21.77.7a.74.74,0,0,1-.83.73A.86.86,0,0,1,217,91.58Zm2.32,3h-1.43v-.3h.42v-1l-.16,0a1.18,1.18,0,0,1-.28,0v-.26a.77.77,0,0,0,.69-.26H219v1.59h.41Zm1.58.06c-.41,0-.54-.36-.75-.36h-.06s.06.07.06.14a.21.21,0,0,1-.23.21.31.31,0,0,1-.31-.35c0-.29.22-.48.59-.67s.42-.22.42-.44-.09-.27-.31-.27a.41.41,0,0,0-.25.07.24.24,0,0,1,.18.24.25.25,0,0,1-.28.26.29.29,0,0,1-.3-.31c0-.26.29-.51.79-.51s.85.25.85.56-.34.47-.67.55-.63.15-.72.39h0a.63.63,0,0,1,.42-.14c.24,0,.42.08.59.08s.17-.07.21-.27l.21,0C221.38,94.43,221.23,94.63,220.94,94.63Zm.54-4.09h-.31c-.11-.56-.16-.65-.42-.65h-.06v1.6H221v.32h-1.28v-.32h.33v-1.6H220c-.26,0-.31.09-.42.65h-.31v-.92h2.2ZM230,98.69l-2-2,.69-.68,2,2Zm1.21-1.2-2-2,4.83-4.83,2,2Zm5.34-5.34-2-2,.69-.69,2,2Z"/></svg>