<svg id="Layer_1" data-name="Layer 1" xmlns="http://www.w3.org/2000/svg" viewBox="0 0 435 325"><defs><style>.cls-1{fill:#e1251b;}.cls-2{fill:#b4bd00;}</style></defs><title>kfec</title><path class="cls-1" d="M158,143.82l9.17-2.19c10.39-2.53,14.7-9.32,14.59-17.76l11.27-.44c.55,13.7-5.53,21.15-16.47,25.43l7.19,15.89a4.25,4.25,0,0,0,4,2.52s4.33-.29,5.75-.54c3.46-.63,8.39-1.41,11.89-4l5-28.44h-9.95l1.66-10H212.4L214.82,110c2.1-11.84,9.29-16,19.23-16a64.73,64.73,0,0,1,13,1.86l-1.76,9.76a46.45,46.45,0,0,0-9.84-1.31c-4.86,0-7.29,3.28-8.51,10.08l-1.77,10H240.9l-1.65,10H223.44L216,175.71l-1.28,4.94a30.9,30.9,0,0,1,13.33-3c11.93,0,17.35,6.24,17.35,13.59,0,10.08-10.39,20.6-30.5,20.6-1.44,0-2.77,0-4.31-.1.88,7.34,7,9.42,12.48,9.42a20.27,20.27,0,0,0,13.49-4.93c3.94-3.38,11.7-10.54,14.63-17.61.2-.63.41-1.24.66-1.85,0-.09.06-.18.08-.27a1.2,1.2,0,0,1,.24-.48c4.29-10.08,13.84-18.37,27.59-18.37a25.11,25.11,0,0,1,15.36,4.71l-3.65,8.33a20.39,20.39,0,0,0-11.27-3.18c-11.27,0-17.35,10.63-17.35,19.73,0,7.45,3.87,13.92,12.82,13.92a20.31,20.31,0,0,0,10.64-3.46c16.2-14.35,26.2-34,26.2-55.62,0-44-41.17-79.58-92-79.58A101.27,101.27,0,0,0,166.11,98Z"/><path class="cls-1" d="M250.27,214.05a75.19,75.19,0,0,1-8.7,8.68c-4.16,3.4-12.6,8.54-19.78,8.54-12,0-23.87-6.9-23.87-23.23a32.77,32.77,0,0,1,.73-6.79h-.06l5.18-29.36c-2,2.37-7.23,3-10.27,3.71-2.5.6-10.17,1.43-10.17,1.43-6.85,0-7.84-2.41-10.6-8.55l-7.63-16.55-8.95,2.19-3.86,21.59h-13l11.61-65.44c-13.83,13.93-22.22,32-22.22,51.84,0,22.39,4.56,36.51,21.75,51l-11,32.09,52.25-9.51c10.83,3.89,16.55,6,29,6a102.52,102.52,0,0,0,46.8-11.08C257.52,228.59,252,222,250.27,214.05Z"/><path class="cls-1" d="M233.61,193.13c0-3.72-3.2-5.59-6.41-5.59-6.3,0-14.92,4.83-16.57,16.55h2.21C226.1,204.09,233.61,198.39,233.61,193.13Z"/><path class="cls-2" d="M154,205.56c-18.16-13.25-29.83-20.94-31.38-43.28-3-43.84,41.71-82.2,92.38-85.66s88.06,29.28,91.1,73.13S285.12,232,234.46,235.43c-12.42.85-35.87-.92-47-4.06l-38.09,17.26ZM151.65,246l36.14-16.47c10.86,3.08,34.1,5.34,46.27,4.51,49.66-3.39,73.18-41,70.2-84S264.62,74.92,215,78.31s-93.53,41-90.55,84c1.52,21.89,13.48,29.55,31.28,42.54Z"/></svg>