<svg id="Layer_1" data-name="Layer 1" xmlns="http://www.w3.org/2000/svg" viewBox="0 0 435 325"><defs><style>.cls-1{fill:#231f20;}</style></defs><title>mvsc</title><path class="cls-1" d="M57.31,252l-.68.34V236.93l.68.35Zm10.63-6.51-5.48,1.37-1,.52-.68.68-.17.35.17.34h.34l.34-.17.18-.35-.18-.34h.35l.35.34v.52l-.7.68h-1l-.51-.51V248l1.19-.78-2,.5-.09.1v2.49l-.69.34v-12L59,239v2.47l.09.11,2,.49-1.19-.76v-.95l.51-.51h1l.7.68v.52l-.35.34h-.35l.18-.34-.18-.34-.34-.18h-.34l-.17.34.17.35.68.68,1,.52,5.48,1.37.85.85Zm-1-1.28-7.79-1.95-.09.06v1.89l.09.08h8.47Zm-7.79.77-.09.08V247l.09.07,7.79-2,.68-.08Z"/><path class="cls-1" d="M145.22,250.64h-7.91V239.23h7.76c2.69,0,4.32,1.15,4.32,3.09v.13a2.73,2.73,0,0,1-2.42,2.48c1.7.3,2.56,1.4,2.56,2.44v.19C149.53,249.49,147.91,250.64,145.22,250.64Zm-.29-7.53c0-.57-.36-.84-1.23-.84h-1.8v1.9h1.8c.87,0,1.23-.29,1.23-.88Zm0,3.5c0-.58-.36-.85-1.23-.85h-1.8v1.9h1.8c.87,0,1.23-.27,1.23-.85Z"/><path class="cls-1" d="M153.22,250.64V239.23h11.34v3.19h-6.74V244h4.45v1.65h-4.45v1.54h6.74v3.44Z"/><path class="cls-1" d="M168.39,250.64V239.23h11.35v3.19H173V244h4.46v1.65H173v1.54h6.75v3.44Z"/><path class="cls-1" d="M192.35,250.64c-.63,0-1-.79-1-1.76V247.5c0-.63-.22-1.11-1.06-1.11h-2.09v4.25h-4.59V239.23h7.88c2.69,0,4.34,1.39,4.34,3.19v.27a2.67,2.67,0,0,1-2.34,2.43,2.49,2.49,0,0,1,2.41,2.51v1.11a2.92,2.92,0,0,0,.56,1.86v0Zm-1.15-7.35c0-.73-.43-1-1.5-1h-1.53v2.29h1.53c1.07,0,1.5-.33,1.5-1Z"/><path class="cls-1" d="M220.3,239l-15.77,3.93v-1l.35.17h.34l6.17-1.54,1-.5.68-.7.17-.33-.17-.35h-.34l-.34.17-.18.34.18.35h-.35l-.34-.35v-.51l.69-.69h1l.52.52v1l-1.2.76,6.17-1.54H221v.51Zm.34,8.21h-.34l-6.18,1.55-1,.51-.68.69-.18.34.18.34h.34l.34-.17.17-.34-.17-.35h.34l.35.35v.51l-.69.69h-1l-.51-.52v-.94l1.2-.77-6.17,1.54h-2.06v-.51l.69.17L221,246.36v1Zm-12.39,1.34.09-.65-.11-.46-.08-.07-1.23.31-.08.1-.12.52.07.62-1.73.44.33-.74,1.05-4.66-.11-.5,2.54-.63-.12.55,1.05,4.15.3.56Zm-.69-4,0-.26,0,.28-.37,1.8.07.07.68-.18.07-.1Zm7.08-2.52V247l-1,.25L212,244.68l-.14-.35,0,.39V247l.17.58-1.65.42.2-.69V243l-.22-.57,1.6-.4,1.31,2,.15.36,0-.4v-1.68l-.19-.59,1.61-.42Zm4.36,3.82-3.26.82.19-.68v-4.28l-.19-.58,3.26-.83,1,.84v3.34Zm-.45-3.63-.19-.36-.38-.1-.47.12-.07.1v2.83l.1.08.44-.12.38-.29.19-.42Z"/><path class="cls-1" d="M233.57,251c-3,0-4.55-1.39-4.55-3.71v-.51h3.09v.42c0,.79.47,1.18,1.28,1.18s1.16-.32,1.16-.88c0-1.51-5.33-1.44-5.33-4.95,0-2,1.61-3.59,4.34-3.59s4.28,1.41,4.28,3.55v.62h-3.11v-.41a1,1,0,0,0-1.16-1.14c-.65,0-1,.31-1,.89,0,1.47,5.36,1.35,5.36,4.85C237.94,249.27,236.5,251,233.57,251Z"/><path class="cls-1" d="M246.47,246.7h-2v3.94H240.9V239.23h5.57a3,3,0,0,1,3.32,3v1.47C249.79,245.52,248.46,246.7,246.47,246.7Zm-.11-4.23c0-.47-.26-.69-.78-.69h-1.09v2.78h1.09c.52,0,.78-.23.78-.68Z"/><path class="cls-1" d="M252.69,250.64V239.23h3.58v11.41Z"/><path class="cls-1" d="M265.92,250.64c-.53,0-.83-.88-.83-1.76v-1.71c0-.5-.22-.86-.78-.86h-1.18v4.33h-3.57V239.23h5.5c2.22,0,3.39,1.16,3.39,2.86v1a2,2,0,0,1-1.58,2,1.89,1.89,0,0,1,1.65,1.9v1.72a4,4,0,0,0,.44,1.86v0Zm-.93-8.17c0-.5-.26-.69-.84-.69h-1v2.52h1c.58,0,.84-.19.84-.68Z"/><path class="cls-1" d="M271.65,250.64V239.23h3.57v11.41Z"/><path class="cls-1" d="M284.34,242v8.6h-3.57V242H278v-2.81h9.08V242Z"/><path class="cls-1" d="M293.75,251c-3,0-4.56-1.39-4.56-3.71v-.51h3.11v.42c0,.79.46,1.18,1.27,1.18s1.17-.32,1.17-.88c0-1.51-5.33-1.44-5.33-4.95,0-2,1.61-3.59,4.33-3.59s4.28,1.41,4.28,3.55v.62h-3.1v-.41a1,1,0,0,0-1.17-1.14c-.64,0-1,.31-1,.89,0,1.47,5.36,1.35,5.36,4.85C298.12,249.27,296.69,251,293.75,251Z"/><path class="cls-1" d="M366.77,243.79l5.49-1.37,1-.52.69-.68.17-.35-.17-.34h-.34l-.35.18-.17.34.17.34h-.34l-.34-.34v-.52l.68-.68h1l.51.51v.95l-1.19.76,2-.49.09-.11V239l.69-.35v12l-.69-.34v-2.49l-.09-.1-2-.5,1.19.78v.94l-.51.51h-1l-.68-.68v-.52l.34-.34h.34l-.17.34.17.35.35.17H374l.17-.34-.17-.35-.69-.68-1-.52-5.49-1.37-.86-.86Zm8.82.51.09-.08v-1.89l-.09-.06-7.79,1.95-.69.08Zm-7.79.77,7.79,2,.09-.07v-1.89l-.09-.08h-8.48Zm10.28-8.14v15.42l-.69-.34V237.28Z"/><rect class="cls-1" x="56.1" y="234.04" width="322.8" height="0.57"/><rect class="cls-1" x="56.1" y="231.27" width="322.8" height="1.8"/><rect class="cls-1" x="56.1" y="255.74" width="322.8" height="1.8"/><rect class="cls-1" x="56.1" y="254.21" width="322.8" height="0.57"/><path class="cls-1" d="M262.19,103.66l0-8.68q0-9.45,0-18.86c-3.13-3.24-4.79-5-7.92-8.17-6.52-.17-9.83-.24-16.09-.32l-2,2c-2,2-3.53,3.48-5.94,5.86L230.23,103l3.67,3.7,4.25,4.33c6.27.1,9.58.16,16.1.33,2.88-2.8,4.51-4.39,7.18-6.95Zm-8.9-24.89L253.23,100l-1.45,2.85-2.89,1.36-5.39-.11-1-.51c-.69-.34-1-.51-1.7-.88l-.19-.08-.08-.18c-.29-.61-.5-1-.73-1.47l-.61-1.23,0-10.37c0-3.26,0-6.48,0-10.83v-.14l1.43-2.84.2-.1,2.55-1.22.14-.07,1.36,0,3.88.08H249l.13.07c1,.54,1.55.8,2.56,1.34l.17.09.41.82.53,1.07c.11.23.18.39.27.55l.22.44Z"/><path class="cls-1" d="M269.65,199.19l-3-5.23-4.87-13.43,7.12-7.12,0-10.32-7.27-7.29H236.57l1.08,4.49-.11,34.58-1.09,4.32H247l-1.09-4.49,0-11.72,1-1h5.18l1.64.82,5.32,16.39ZM255,175.57h-8l-1-1,0-11.33,1-1H255l3.5,1.75,1.43,2.86V171l-1.45,2.86Z"/><path class="cls-1" d="M242.22,102s-.05-.08-.07-.14c0-8.41,0-12.61.08-21,.5-1,.76-1.53,1.27-2.54l2.55-1.22,5.11.1.05,0,0-.08-.24-.46-2.24-1.18-3.75-.08-1.06,0c-.88.42-1.38.67-2.24,1.07l-1.12,2.22c0,4.27,0,7.46,0,10.67l0,10.08.48,1,.64,1.29Z"/><polygon class="cls-1" points="248.89 174.34 248.92 165.79 249.55 165.16 257.2 165.16 257.92 165.52 257.6 164.88 254.74 163.45 247.49 163.45 247.22 163.73 247.19 174.06 247.46 174.34 248.89 174.34"/><path class="cls-1" d="M226.77,191.9l0-10.64-5.66-5.68,5.05-5,0-8.09-6.63-6.65H195.13l1.09,4.49-.11,34.58-1.1,4.32h24.45Zm-22.23-29,1-1h8.05l2.86,1.44,1.43,2.85v2.22l-1.44,2.85-2.86,1.43h-8.06l-1-1Zm13.28,24.94-1.44,2.87-3.51,1.75h-7.09l-1.32-1.32,0-11,1-1h7.42l3.49,1.76,1.42,2.86Z"/><polygon class="cls-1" points="229.14 164.51 227.44 162.81 227.42 171.06 222.88 175.58 224.76 177.47 229.12 173.12 229.14 164.51"/><path class="cls-1" d="M197.64,79.88l1.76-3.52,3.51-1.78,1.63,0,7.28,0,.19,0,5.4,1.84-3-8.93c-6.76,0-10.27,0-17.17.12-2.88,2.91-4.61,4.65-7.13,7.21l-1.48,1.49-.07,26.92,2.36,2.32,4.93,4.85.63.61c6-.07,9.26-.11,15.44-.12l7.93-7.89-.58-3.51V96.94l0-6,.34-.67c.12-.22.22-.43.37-.72.35-.68.57-1.14.84-1.66-4.66,0-7.4,0-12.06,0l1.28,2.55.88,1.78,0,9.34-2.28,2.28h-.26c-2.22,0-3.47,0-5.43,0h-1.09l-1-.49-1.11-.53-.79-.39-1.42-2.84v-.16Z"/><polygon class="cls-1" points="165.08 190.11 165.04 190.02 165.09 168.98 166.38 166.43 168.93 165.16 174.03 165.16 174.11 165.2 173.8 164.57 171.57 163.45 166.77 163.45 164.52 164.57 163.4 166.8 163.34 187.55 164.45 189.79 165.08 190.11"/><path class="cls-1" d="M263.45,95l0,9.2-1.14,1.1c-2.72,2.63-4.37,4.22-7.35,7.13l-.19.19h-.26c-6.54-.18-9.87-.24-16-.33l1.69,1.7c6.64.09,10,.15,16.6.33,3.32-3.24,5-4.85,8.31-8.05q0-14,.08-28.06l-1.69-1.76Z"/><path class="cls-1" d="M177.09,199.19l8-7.93.07-27.53-7.9-7.93H161.16l-8,7.93-.08,27.53,7.91,7.93Zm-15-11.49.06-21.19,1.44-2.86,2.86-1.43h5.39l2.86,1.43,1.42,2.86v.15l-.06,21.18-1.43,2.87-2.87,1.43h-5.39l-2.86-1.43-1.42-2.87Z"/><path class="cls-1" d="M222.19,88c-.37.76-.62,1.25-1.06,2.11-.14.31-.26.52-.37.74l-.21.4,0,8.15.68,4-.31.31c-3.27,3.25-4.94,4.9-8.24,8.2l-.18.18h-.26c-6.24,0-9.45,0-15.38.12l1.74,1.71c6.38-.07,9.58-.11,16-.13,3.33-3.31,5-5,8.32-8.29-.24-1.52-.38-2.29-.64-3.81,0-3.33,0-5,0-8.3.26-.52.4-.75.66-1.27l1.27-2.55-1.85-1.86Z"/><path class="cls-1" d="M219.36,78.36l-1.19-.4c-2.59-.9-3.89-1.34-6.45-2.2l-7.18,0h-1.33l-2.88,1.47-1.45,2.9,0,19.15,1.1,2.22.42.21.2.08a.05.05,0,0,1,0,0c0-7.79,0-11.67,0-19.45.64-1.28,1-1.93,1.62-3.21l3.19-1.63,8.75,0,6.57,2.23c-1.06-3.2-1.59-4.79-2.64-8-.35-1-.5-1.54-.85-2.55l-1.34-1.35Z"/><path class="cls-1" d="M307.61,80.11l-1.71-1.8,0,6.54q0,10.49-.05,21v.25l-.2.2c-3.33,3.11-5,4.68-8.3,7.81l-.2.17h-.26c-6.43-.34-9.7-.51-15.91-.77l1.67,1.67c6.63.29,9.94.44,16.58.81,3.32-3.14,5-4.7,8.32-7.81Q307.56,94.13,307.61,80.11Z"/><path class="cls-1" d="M284.68,103.35l-.11-.2c0-8.42,0-12.63.06-21.05.52-1,.78-1.49,1.29-2.49l2.56-1.16,5.08.25c-.07-.14-.15-.29-.22-.45L291.08,77c-1.89-.09-2.92-.15-4.81-.23l-2.22,1-1.12,2.17-.06,20.75c.25.53.45.92.66,1.33l.47,1Z"/><path class="cls-1" d="M325.65,79.35l2.9-1.24h.15c3.32.25,5,.38,8.28.65l.19,0,4.49,1.87L339,72.53c-6.12-.51-9.37-.76-15.89-1.23-3.12,2.9-4.77,4.43-7.9,7.36l0,9L321,93.86c3.73,1.13,5.63,1.72,9.4,2.89l.15.06,2.51,2.7,0,4.53-1.45,2.78-.72.31-2,.86-.15.07-.14,0c-3.52-.27-5.28-.39-8.79-.64l-.19,0-5.27-2.17,2.94,9.09,1.19.09c6.43.43,9.59.67,15.66,1.16,3.12-2.89,4.77-4.4,7.9-7.25L342,97l-5.76-6.26c-3.58-1.13-5.43-1.7-9.07-2.82l-.11,0-.18-.06-.18,0-2.5-2.73V82.13Z"/><path class="cls-1" d="M321.57,95.33,323,96.74c3.31,1,5.2,1.57,8.13,2.49l-1.24-1.35Z"/><path class="cls-1" d="M372.74,101.78l-5.54-2.43-5-.5-.23.21,0,10,.63.7,1.08.1c0-3.12,0-5.18,0-8.75l.64-.59,5.39.55c1.92.82,2.87,1.24,4.77,2.08,0-3,0-4.46,0-7.43v-3.4l-1.7-1.71Z"/><path class="cls-1" d="M377.45,77.87l2.72,8.59-1.26-.56-3.71-1.65-1.91-.85c-4.42-.47-6.71-.7-11.08-1.12l-.23.2,0,7.14.31.35,1.4.14c0-1.86,0-3.3,0-5.58l.64-.58c4.59.45,6.87.68,11.45,1.17l5.71,2.53c-.92-2.91-1.38-4.36-2.31-7.28-.34-1.05-.5-1.57-.83-2.63L377,76.37C377.11,76.83,377.25,77.27,377.45,77.87Z"/><path class="cls-1" d="M315.09,199.19,313,194.87l-9.5-35.53.83-3.54H288.61l.81,3.55,0,.14L279.67,195l-2.11,4.21h10.1l-.55-4.52,1.35-5.37,1-.94H302l.93.94,1.33,5.37-.58,4.52Zm-15.28-17.25h-8.15l-1.07-1.06,4.28-17.54.93-5.54.92,5.57,4.16,17.51Z"/><polygon class="cls-1" points="207.46 171.46 207.47 165.47 208.11 164.84 215.77 164.84 215.84 164.88 215.53 164.24 213.3 163.14 206.05 163.14 205.77 163.41 205.75 171.18 206.02 171.46 207.46 171.46"/><path class="cls-1" d="M170.22,111.56l.9,0c2.59-.09,4-.12,6.42-.19l.12-39.07,1.09-4.34c-3.57.09-5.69.14-9.27.25.2.8.37,1.45.53,2.12l.56,2.36,0,17.21.73,7.38-2.88-7.12c-2.89-5.73-4.73-9.36-7.1-14l-3.81-7.5c-4.44.17-6.91.28-11.23.48l1.37,4.35v.1l-.1,34.57-1.1,4.36,4.1-.18,5.17-.23-1.1-4.46.07-22.31-.74-7.37,2.88,7.1,1.56,3.07Q164.3,99.83,170.22,111.56Z"/><polygon class="cls-1" points="207.4 191.23 207.43 182.69 208.06 182.05 215.08 182.05 215.8 182.41 215.49 181.78 212.61 180.35 206 180.35 205.72 180.63 205.69 190.64 206.29 191.23 207.4 191.23"/><polygon class="cls-1" points="296.89 169.45 295.78 164.78 291.96 180.5 292.16 180.71 294.14 180.71 296.89 169.45"/><path class="cls-1" d="M280.68,68.85c-3.15,3-4.81,4.58-7.95,7.6l0,9.06c0,6.16,0,12.32,0,18.48l3,3.1,4.95,5.16c6.42.27,9.67.44,16.08.78l7.92-7.46.06-20.72V78l-.81-.87c-2.63-2.8-4.26-4.52-7.11-7.53C290.16,69.28,286.87,69.12,280.68,68.85Zm15,11.56-.07,21.19-1.45,2.81-2.89,1.28h-.14c-2-.11-3.06-.15-5.11-.25h-.13l-2.84-1.56-.64-1.3c-.22-.45-.44-.87-.74-1.47l-.06-.13v-.14l.06-21.2,1.46-2.82L286,75.52h.15l5.11.25h.14l2.85,1.58.08.18c.33.69.51,1,.85,1.74l.42.86.07.13Z"/><path class="cls-1" d="M353.68,117.21c8.77.8,13.33,1.25,22.42,2.24l3-8.63c-2,.46-3.32.74-5.6,1.27l-.1,0h-.1c-3.82-.41-5.73-.61-9.53-1L362,111l-1.28-1.42,0-11,1.05-.94,5.85.62,3.91,1.71,0-9.12-1,.24c-.94.21-1.77.41-3,.7h-.21c-1.4-.14-2.09-.22-3.5-.35l-1.91-.2h-.22l-.95-1.06V81.93L361.8,81l.26,0c4.59.43,6.88.66,11.45,1.15l.19,0,2,.88,2.47,1.1-1.9-6c-.3-.92-.46-1.44-.72-2.26-8-.85-16.08-1.66-24.18-2.39l1.08,4.52-.11,34.58L351.22,117l2.35.2Z"/><polygon class="cls-1" points="186.28 191.78 177.6 200.43 161.4 200.43 163.1 202.13 179.66 202.13 187.98 193.84 188.06 165.79 186.36 164.09 186.28 191.78"/><polygon class="cls-1" points="228 192.41 219.97 200.43 194.84 200.43 196.53 202.13 199.47 202.13 222.03 202.13 229.71 194.48 229.74 183.33 228.03 181.62 228 192.41"/><path class="cls-1" d="M157.51,109.93c0-8.35,0-12.78.05-20.64l-.32-.62L155.86,86l-.06,21.59,1.44,5.71-.77,0-5.91.26-4.37.19,1.73,1.74,3.19-.15c3.07-.14,4.59-.21,7.66-.33C158.26,113,158,112,157.51,109.93Z"/><path class="cls-1" d="M139.39,107.59q0-14,.08-28l-1.7-1.7,0,7q0,10.2-.06,20.4v.25l-.17.17c-3.33,3.49-5,5.24-8.3,8.73l-.16.18-.27,0c-6.44.37-9.76.58-16.15,1l1.86,1.74c6.63-.47,10-.67,16.58-1.06C134.4,112.84,136.06,111.08,139.39,107.59Z"/><polygon class="cls-1" points="248.85 185.56 249.5 184.92 253.14 184.92 252.73 183.67 251.81 183.21 247.43 183.21 247.16 183.49 247.13 194.63 248.56 200.43 236.28 200.43 237.97 202.13 240.91 202.13 250.09 202.13 248.83 197.03 248.85 185.56"/><path class="cls-1" d="M97.15,76.65c.25-1,.39-1.57.64-2.6L96,72.24,94.8,77l-.1,34.27,1.43,5.63-.73.06-7.42.61-3.85.35,1.75,1.75,3.19-.29c3.44-.29,5.16-.44,8.6-.71-.51-2-.76-3-1.26-5l.09-34.43C96.76,78.21,96.88,77.68,97.15,76.65Z"/><polygon class="cls-1" points="142.06 200.43 125.65 200.43 127.36 202.13 143.94 202.13 146.28 195.14 147.47 191.61 145.64 189.78 142.06 200.43"/><polygon class="cls-1" points="264.8 183 271.84 175.99 271.87 165.16 270.16 163.45 270.14 173.92 263.2 180.85 267.79 193.49 271.78 200.43 259.22 200.43 260.92 202.13 262.51 202.13 273.04 202.13 269.55 196.07 264.8 183"/><path class="cls-1" d="M341.81,74.27l-1.36-1.37,3.2,9.95L336.79,80c-3.2-.25-4.86-.38-8-.61l-2.21.94-1.1,2.12,0,2.15,1.71,1.84V84.6c.52-1,.77-1.48,1.28-2.46,1-.44,1.53-.64,2.56-1.09l8.28.65L345,84.09c-.92-2.89-1.39-4.33-2.32-7.21C342.31,75.84,342.16,75.31,341.81,74.27Z"/><path class="cls-1" d="M380.54,110.47,377,120.78l-.49-.06c-9.41-1-14-1.47-22.89-2.29h-.1l-2.32-.21,1.62,1.63,3.17.29c9.17.85,13.76,1.3,22.9,2.29.9-2.58,1.34-3.86,2.25-6.44.51-1.48.77-2.23,1.28-3.69Z"/><path class="cls-1" d="M343.2,108.83l-.2.18c-3.33,3-5,4.56-8.31,7.6l-.19.19-.27,0c-6.23-.5-9.38-.74-15.81-1.18l-1-.07,1.66,1.66,1.7.12c6.33.43,9.49.66,15.82,1.17l8.3-7.61c0-4.71,0-7.07,0-11.8-.64-.69-1.19-1.28-1.7-1.85Z"/><polygon class="cls-1" points="306.4 161.65 306.82 159.86 307.37 157.5 305.57 155.7 304.72 159.31 314.12 194.49 317.09 200.43 303.63 200.43 305.33 202.13 307.99 202.13 318.41 202.13 315.87 197.03 306.4 161.65"/><path class="cls-1" d="M178.88,72.5l-.11,40.05-.6,0c-2.81.07-4.22.12-7,.2l-.69,0,1.7,1.72c.51,0,.77,0,1.29,0,2.8-.09,4.21-.12,7-.2q0-19.76.1-39.53c.26-1,.4-1.53.65-2.56s.38-1.55.64-2.57l-1.8-1.8Z"/><polygon class="cls-1" points="301.84 189.92 301.51 189.59 289.92 189.59 289.58 189.93 288.36 194.75 289.05 200.43 277.18 200.43 278.87 202.13 282.41 202.13 290.67 202.13 290.06 197.03 291.34 191.93 291.98 191.29 302.19 191.29 301.84 189.92"/><path class="cls-1" d="M116.44,105.08c0-8.36,0-12.56,0-21l1.29-2.62c1-.59,1.54-.89,2.56-1.45,2-.15,3.06-.21,5.1-.33l.19.08-.41-.8c-.85-.39-1.34-.6-2.21-1l-4.81.3-2,1.17-.22.12L114.8,82l-.06,20.75,1.1,2.13Z"/><path class="cls-1" d="M94.67,72.41c-4.3.35-6.76.57-11.2,1l-8.6,20.18c-.06.14-.12.27-.19.45l-.91,4.22-1-4.22c-3-6.68-4.59-10-7.67-16.76l-.93-2c-4.44.45-6.9.72-11.25,1.2.2.82.37,1.48.55,2.16l.55,2.26Q54,97.92,54,115l0,.38-.41,1.66c-.23.92-.42,1.7-.67,2.71l2.3-.24c2.81-.31,4.33-.47,6.93-.73l-.42-1.65c-.2-.78-.39-1.57-.66-2.64l0-.26.06-22.84L60.14,84l2.76,7.11,2.33,5.15c3.11,6.87,4.87,10.75,8,17.66l.17-.41q2.93-7,5.86-13.91L83.71,89l2.83-7.73-1,8-.07,23-1.08,4.36,3.5-.3,6.7-.56-1.1-4.45.11-34.57Z"/><polygon class="cls-1" points="141.17 199.19 144.17 190.27 138.44 192.14 130.97 192.14 127.47 190.39 125.73 186.9 125.73 186.74 125.78 168.1 127.54 164.6 131.04 162.86 138.21 162.88 143.6 164.72 140.65 155.8 125.41 155.8 116.82 164.36 116.75 190.64 125.29 199.19 141.17 199.19"/><path class="cls-1" d="M84.3,90.8l-3.93,9.3L74.52,114l-.71,1.69h-.16l1.74,1.74.31,0c.23-.53.34-.8.57-1.34q4-9.52,8-19Z"/><path class="cls-1" d="M162.39,75.56l6.91,13.65v-.89c-2.74-5.41-4.64-9.17-7.86-15.51-.52-1-.77-1.51-1.28-2.5l-.91-.91Z"/><polygon class="cls-1" points="145.55 166.68 137.9 164.09 131.34 164.09 128.46 165.52 127.01 168.41 126.97 186.6 128.4 189.47 129.03 189.79 128.66 189.07 128.72 170.57 130.31 167.39 133.5 165.79 140.33 165.79 146.89 168.02 144.19 159.86 143.41 157.5 142.07 156.16 145.55 166.68"/><path class="cls-1" d="M128.48,113.42c3.16-3.33,4.82-5.08,8-8.38q0-10.1,0-20.16l0-7.39-.34-.31c-2.91-2.76-4.55-4.32-7.55-7.15-6.36.37-9.68.58-16.06,1L105.9,78.2l-1.29,1.39-.08,27.54,2.35,2.19,5.53,5.13C118.82,114,122.14,113.79,128.48,113.42Zm-15-10.58.07-21.19L115,78.73l.55-.31c.79-.45,1.28-.74,2.18-1.23l.11-.08,5.41-.34.13.06c1,.45,1.53.66,2.55,1.13l.2.08,1.44,2.79V81l-.07,21.17-1.42,2.94-.18.1-2.48,1.38-.12.08-.21,0L118,107h-.15l-1.54-.67c-.36-.17-.67-.29-1.14-.5l-.2-.07L113.5,103Z"/><path class="cls-1" d="M64,96.57,62.29,92.8l0,21.51.65,2.57.77,3-.72.07-7.63.8-2.68.28,1.76,1.77,3.17-.34c3.06-.34,4.58-.49,7.63-.81-.5-2-.74-3-1.25-5C64,108.5,64,104,64,96.57Z"/><path class="cls-1" d="M66.27,76.73c3,6.56,4.55,9.93,7.47,16.32l.28-.66c-2-4.49-3.54-7.72-6-13.09-.45-1-.68-1.46-1.12-2.42L65.85,75.8Z"/><path class="cls-1" d="M182.43,140.63H179l-3.79-10.13H179l1.93,6,2-6h3.35Z"/><path class="cls-1" d="M190.21,140.63V130.5h8.65v2.6h-5v1.55h3.31v1.6h-3.31v1.56h5v2.82Z"/><path class="cls-1" d="M210.18,140.63c-.51,0-.83-.75-.83-1.57v-1.39a.76.76,0,0,0-.82-.86h-1.44v3.82h-3.62V130.5h5.95c2,0,3.42,1.14,3.42,2.7v.35a2.24,2.24,0,0,1-1.75,2.18,2,2,0,0,1,1.8,2.07v1.14a3,3,0,0,0,.46,1.65v0Zm-.91-6.78c0-.62-.31-.89-1.05-.89h-1.13v2.15h1.13c.74,0,1.05-.28,1.05-.88Z"/><path class="cls-1" d="M222,140.88a8.1,8.1,0,0,1-5.24-1.88l1.69-1.95a6.39,6.39,0,0,0,3.62,1.46c.9,0,1.19-.33,1.19-.75,0-1.35-5.83-.77-5.83-4.22,0-1.75,1.78-3.29,4.6-3.29a6.56,6.56,0,0,1,4.74,1.91l-1.91,1.63a4.83,4.83,0,0,0-2.88-1.18c-.75,0-1.13.27-1.13.67,0,1.35,5.89.91,5.89,4.2C226.69,139.38,224.67,140.88,222,140.88Z"/><path class="cls-1" d="M235.93,140.88c-3.27,0-4.94-1.73-4.94-3.81V130.5h3.63v6.4c0,.79.52,1.28,1.45,1.28s1.45-.49,1.45-1.28v-6.4h3.27v6.57C240.79,139.15,239.22,140.88,235.93,140.88Z"/><path class="cls-1" d="M249.83,140.88a8.1,8.1,0,0,1-5.24-1.88l1.69-1.95a6.47,6.47,0,0,0,3.63,1.46c.9,0,1.18-.33,1.18-.75,0-1.35-5.82-.77-5.82-4.22,0-1.75,1.78-3.29,4.6-3.29a6.58,6.58,0,0,1,4.74,1.91l-1.92,1.63a4.83,4.83,0,0,0-2.87-1.18c-.75,0-1.15.27-1.15.67,0,1.35,5.91.91,5.91,4.2C254.58,139.38,252.56,140.88,249.83,140.88Z"/><rect class="cls-1" x="263.36" y="134.81" width="45.27" height="1.03"/><rect class="cls-1" x="263.36" y="132" width="49.21" height="0.59"/><rect class="cls-1" x="263.36" y="138.06" width="49.21" height="0.59"/><rect class="cls-1" x="119.79" y="134.81" width="45.28" height="1.03"/><rect class="cls-1" x="115.86" y="132" width="49.2" height="0.59"/><rect class="cls-1" x="115.86" y="138.06" width="49.2" height="0.59"/></svg>