<svg id="Layer_1" data-name="Layer 1" xmlns="http://www.w3.org/2000/svg" viewBox="0 0 435 325"><defs><style>.cls-1{fill:#f37920;}</style></defs><title>wmlogo</title><path class="cls-1" d="M157.17,193.83q7.76,0,12.44-4.61t4.68-12.84V118.57h-3.55v57.81q0,7.11-3.88,10.5a14.17,14.17,0,0,1-9.69,3.39,14.73,14.73,0,0,1-9.93-3.39q-4-3.39-4-10.5V118.57h-3.55v57.81q0,8.24,4.84,12.84C147.81,192.29,152,193.83,157.17,193.83Z"/><path class="cls-1" d="M111.62,193.83q7.75,0,12.52-4.61t4.77-12.84V118.57h-3.56v57.81q0,7.11-3.95,10.5a15.9,15.9,0,0,1-19.63,0q-3.87-3.39-3.88-10.5V118.57H94.34v57.81q0,8.24,4.77,12.84C102.28,192.29,106.46,193.83,111.62,193.83Z"/><path class="cls-1" d="M278,131q-7.75,0-12.52,4.61t-4.76,12.84v57.8h3.55v-57.8q0-7.11,3.88-10.5a15.89,15.89,0,0,1,19.62,0q4,3.39,4,10.5v57.8h3.55v-57.8q0-8.25-4.76-12.84T278,131Z"/><path class="cls-1" d="M323.54,131q-7.76,0-12.6,4.61t-4.85,12.84v57.8h3.56v-57.8q0-7.11,4-10.5a14.74,14.74,0,0,1,9.94-3.39,14.21,14.21,0,0,1,9.69,3.39q3.87,3.39,3.88,10.5v57.8h3.55v-57.8q0-8.25-4.69-12.84T323.54,131Z"/><polygon class="cls-1" points="222.75 166.38 222.75 189.8 226.3 189.8 226.3 169.93 246.01 169.93 246.01 206.26 249.56 206.26 249.56 169.93 249.56 166.38 246.01 166.38 222.75 166.38"/><polygon class="cls-1" points="208.05 151.68 188.99 151.68 188.99 118.57 185.44 118.57 185.44 151.68 185.44 155.39 188.99 155.39 211.77 155.39 211.77 130.68 208.05 130.68 208.05 151.68"/><path class="cls-1" d="M185.44,166.38v10a35.46,35.46,0,0,1-1.78,11.39,24.92,24.92,0,0,1-5.25,9,23.26,23.26,0,0,1-8.8,5.9,33.8,33.8,0,0,1-12.44,2.1q-14.21,0-22.93-10.34-8.73,10.34-22.62,10.34a33.78,33.78,0,0,1-12.43-2.1,23.89,23.89,0,0,1-8.88-5.9,24.41,24.41,0,0,1-5.34-9,35.46,35.46,0,0,1-1.77-11.39V118.57H79.64v57.81a41.48,41.48,0,0,0,1.94,13,26.49,26.49,0,0,0,15.83,16.88,37.63,37.63,0,0,0,14.21,2.42A34,34,0,0,0,125,206.26a27.84,27.84,0,0,0,9.45-6.3,29.77,29.77,0,0,0,9.53,6.3,33.32,33.32,0,0,0,13.24,2.42,37.22,37.22,0,0,0,14.06-2.42,26.45,26.45,0,0,0,15.82-16.88,41.19,41.19,0,0,0,1.94-13v-6.45h19.06V189.8h3.72V166.38H185.44Z"/><path class="cls-1" d="M353.42,135.53a26.5,26.5,0,0,0-5.9-10.17,27.69,27.69,0,0,0-9.93-6.62,37.2,37.2,0,0,0-14-2.42,35.75,35.75,0,0,0-13.41,2.34,26.9,26.9,0,0,0-9.53,6.21,29.09,29.09,0,0,0-9.45-6.21A33.82,33.82,0,0,0,278,116.32a37.63,37.63,0,0,0-14.21,2.42,27.65,27.65,0,0,0-9.94,6.62,26.63,26.63,0,0,0-5.9,10.17A41.8,41.8,0,0,0,246,148.46v3.22H226.3v-21h-3.55v24.71h26.81v-6.93a34.48,34.48,0,0,1,1.78-11.31,24.13,24.13,0,0,1,14.21-14.94A32.76,32.76,0,0,1,278,120a30.49,30.49,0,0,1,12.76,2.5,28.84,28.84,0,0,1,10,7.84Q309.49,120,323.54,120A32.74,32.74,0,0,1,336,122.21a24,24,0,0,1,8.81,6,25.46,25.46,0,0,1,5.25,9,34.75,34.75,0,0,1,1.77,11.31v57.8h3.56v-57.8A41.8,41.8,0,0,0,353.42,135.53Z"/><path class="cls-1" d="M341.87,130.53q-6.21-6.94-18.33-7-18.59,0-22.94,16A17.22,17.22,0,0,0,293,127.86a26.11,26.11,0,0,0-15-4.28q-12.12,0-18.41,7t-6.3,17.93v10.48H219V130.68h-3.71v28.26H181.73V118.57H178v57.81q0,9.69-5.41,15.51t-15.43,5.81q-10.17,0-15.58-5.81t-5.41-15.51V118.57h-3.56v57.81q0,9.69-5.49,15.51t-15.51,5.81q-10.17,0-15.5-5.81t-5.33-15.51V118.57H86.91v57.81q0,11,6.3,17.93t18.41,6.95q9,0,14.86-3.88t7.92-12.12A17.11,17.11,0,0,0,142.07,197a26.42,26.42,0,0,0,15.1,4.29q12.12,0,18.33-6.95t6.23-17.93V162.82h33.59v27H219v-27h34.25v43.44h3.87v-57.8q0-9.69,5.33-15.43T278,127.3q10,0,15.51,5.73T299,148.46v57.8h3.56v-57.8q0-9.69,5.41-15.43t15.59-5.73q10,0,15.42,5.73t5.41,15.43v57.8h3.72v-57.8Q348.09,137.48,341.87,130.53Z"/></svg>