<svg id="Layer_1" data-name="Layer 1" xmlns="http://www.w3.org/2000/svg" viewBox="0 0 435 325"><defs><style>.cls-1{fill:#fcf03a;}</style></defs><title>coolbrainsplain</title><path d="M48.94,254.29c0-1.44.72-2.22,2-2.22h4c3.61,0,5.41,1.48,5.41,4.24a3.7,3.7,0,0,1-2.81,3.81l2.93,3.63c.12.16-.58,1.38-2.31,1.38-1.24,0-1.86-.54-2.7-1.7L53.67,261H53v2.29a1.63,1.63,0,0,1-1.77,1.86h-.56c-1.1,0-1.68-.86-1.68-2.33Zm5.63,3.85c1.2,0,1.8-.54,1.8-1.51s-.58-1.52-1.84-1.52H52.89v3Z"/><path d="M64,254.29c0-1.44.72-2.22,2-2.22h6.9c1.28,0,1.86.64,1.86,1.68v.1c0,1.1-.58,1.68-1.86,1.68H68v1.3h3.28c1.33,0,1.87.57,1.87,1.55v.06c0,1-.56,1.64-1.87,1.64H68v1.5h5c1.26,0,1.84.54,1.84,1.59v.1A1.61,1.61,0,0,1,73,265H66c-1.32,0-2-.74-2-2.21Z"/><path d="M81.71,253.07c.2-.64.74-1.1,2.54-1.1s2.29.46,2.49,1.1l4.36,10.86c.14.36-.94,1.28-2.14,1.28-.84,0-1.74-.46-2.3-1.9l-.37-1H82.11l-.36,1c-.48,1.38-1.33,1.86-2.19,1.86-1.1,0-2.2-.88-2.06-1.24Zm3.86,6.39-1.4-3.77-1.38,3.77Z"/><path d="M94.08,254.29a2,2,0,0,1,2.09-2.22h3.42c4.27,0,6.9,2.46,6.9,6.41s-2.71,6.55-7,6.55h-3.2a2.21,2.21,0,0,1-2.23-2.21Zm5.33,7.33a2.88,2.88,0,0,0,3.11-3.12,2.79,2.79,0,0,0-3-3H98.05v6.15Z"/><path d="M110.05,253.83c0-1.24.58-1.86,1.68-1.86h.58c1.14,0,1.74.62,1.74,1.86v9.44c0,1.22-.6,1.86-1.74,1.86h-.58c-1.1,0-1.68-.64-1.68-1.86Z"/><path d="M118,253.83c0-1.24.62-1.86,1.64-1.86h.38a2,2,0,0,1,1.8.94l4.65,6v-5.13c0-1.22.6-1.86,1.75-1.86h.34c1.1,0,1.68.64,1.68,1.86v9.44c0,1.24-.62,1.86-1.62,1.86h-.32a1.88,1.88,0,0,1-1.79-.88l-4.75-6.15v5.17c0,1.22-.6,1.86-1.74,1.86h-.34c-1.1,0-1.68-.64-1.68-1.86Z"/><path d="M140.87,251.79c3.25,0,5.13,1.28,5.13,3,0,1.46-1.88,2-2,1.82a3.63,3.63,0,0,0-2.89-1.38,3.29,3.29,0,0,0-3.28,3.53c0,2.12,1.3,3.5,3.1,3.5,1.4,0,2.35-.64,2.55-1.7h-1.35c-1.26,0-1.88-.3-1.88-1.38V259c0-1.14.62-1.38,1.88-1.38h3.53c1.16,0,1.4.54,1.38,1.7v5.43c0,.12-.62.4-1.34.4a1.89,1.89,0,0,1-2-1.52,4.36,4.36,0,0,1-3.77,1.64c-3.75,0-6.17-2.83-6.17-6.71S136.61,251.79,140.87,251.79Z"/><path d="M151.49,260.74a6.42,6.42,0,0,0,3.84,1.5c1.24,0,1.8-.36,1.8-1s-1-.8-2.32-1.08c-2.16-.44-4.35-1.36-4.35-4.05s2-4.3,5.53-4.3c3.41,0,4.89,1.18,4.89,2.46a2.59,2.59,0,0,1-1.42,2,5.38,5.38,0,0,0-3.43-1.4c-1.16,0-1.74.36-1.74,1s1,.7,2.4,1c2.55.57,4.49,1.67,4.49,4,0,2.83-1.94,4.41-5.85,4.41s-5.17-1.3-5.17-2.67A2.52,2.52,0,0,1,151.49,260.74Z"/><path d="M169.89,254.29c0-1.44.72-2.22,2-2.22h6.34c1.26,0,1.84.56,1.84,1.6v.12c0,1.1-.58,1.66-1.84,1.66h-4.43v2.11h3c1.33,0,1.85.56,1.85,1.52v.08c0,1-.54,1.62-1.85,1.62H174v2.47c0,1.22-.6,1.86-1.76,1.86h-.65c-1.1,0-1.68-.86-1.68-2.33Z"/><path d="M189.46,251.79a6.76,6.76,0,1,1-6.85,6.75A6.53,6.53,0,0,1,189.46,251.79Zm0,9.93a2.86,2.86,0,0,0,2.87-3.18,2.89,2.89,0,0,0-2.87-3.21c-1.76,0-2.88,1.24-2.88,3.21A2.86,2.86,0,0,0,189.46,261.72Z"/><path d="M199.71,254.29c0-1.44.72-2.22,2-2.22h4c3.61,0,5.41,1.48,5.41,4.24a3.7,3.7,0,0,1-2.8,3.81l2.92,3.63c.12.16-.58,1.38-2.3,1.38-1.24,0-1.86-.54-2.7-1.7L204.44,261h-.72v2.29a1.62,1.62,0,0,1-1.76,1.86h-.56c-1.11,0-1.69-.86-1.69-2.33Zm5.63,3.85c1.21,0,1.81-.54,1.81-1.51s-.58-1.52-1.85-1.52h-1.64v3Z"/><path d="M223.65,260l-4.51-6.45c-.12-.2.58-1.5,2.63-1.5a2.2,2.2,0,0,1,1.88,1.38l2,3.42,2.09-3.42c.6-1,1.24-1.4,1.9-1.4,1.84,0,2.6,1.34,2.48,1.52L227.66,260v3.31c0,1.22-.6,1.86-1.75,1.86h-.58c-1.1,0-1.68-.64-1.68-1.86Z"/><path d="M241,251.79a6.76,6.76,0,1,1-6.85,6.75A6.54,6.54,0,0,1,241,251.79Zm0,9.93a2.86,2.86,0,0,0,2.87-3.18c0-1.91-1.14-3.21-2.87-3.21s-2.88,1.24-2.88,3.21A2.86,2.86,0,0,0,241,261.72Z"/><path d="M251.21,253.83A1.63,1.63,0,0,1,253,252h.5c1.16,0,1.76.62,1.76,1.86v5.53c0,1.6.65,2.4,1.93,2.4s1.9-.76,1.9-2.42v-5.51a1.62,1.62,0,0,1,1.76-1.86h.52c1.15,0,1.75.6,1.75,1.86v5.51c0,3.91-2,5.91-5.95,5.91s-5.93-2-5.93-5.91Z"/><path d="M266.87,253.83c0-1.24.62-1.86,1.64-1.86h.38a2,2,0,0,1,1.81.94l4.64,6v-5.13c0-1.22.61-1.86,1.75-1.86h.34c1.1,0,1.68.64,1.68,1.86v9.44c0,1.24-.62,1.86-1.62,1.86h-.32a1.9,1.9,0,0,1-1.79-.88l-4.74-6.15v5.17c0,1.22-.6,1.86-1.75,1.86h-.34c-1.1,0-1.68-.64-1.68-1.86Z"/><path d="M289.7,251.79c3.25,0,5.13,1.28,5.13,3,0,1.46-1.88,2-2,1.82a3.62,3.62,0,0,0-2.89-1.38,3.29,3.29,0,0,0-3.28,3.53c0,2.12,1.3,3.5,3.1,3.5,1.41,0,2.35-.64,2.55-1.7H291c-1.27,0-1.89-.3-1.89-1.38V259c0-1.14.62-1.38,1.89-1.38h3.52c1.16,0,1.4.54,1.38,1.7v5.43c0,.12-.62.4-1.34.4a1.89,1.89,0,0,1-2-1.52,4.36,4.36,0,0,1-3.77,1.64c-3.74,0-6.17-2.83-6.17-6.71S285.44,251.79,289.7,251.79Z"/><path d="M304.94,254.29c0-1.44.73-2.22,2.05-2.22h3.42c3.71,0,5.73,1.6,5.73,4.7s-1.94,4.61-5.61,4.61H309v1.89a1.63,1.63,0,0,1-1.76,1.86h-.58c-1.06,0-1.69-.64-1.69-1.86Zm5.43,4.17c1.23,0,1.87-.6,1.87-1.69s-.66-1.68-1.93-1.68h-1.4v3.37Z"/><path d="M319.24,254.29c0-1.44.72-2.22,2.05-2.22h6.89c1.28,0,1.86.64,1.86,1.68v.1c0,1.1-.58,1.68-1.86,1.68h-4.93v1.3h3.29c1.32,0,1.86.57,1.86,1.55v.06c0,1-.56,1.64-1.86,1.64h-3.29v1.5h5c1.26,0,1.84.54,1.84,1.59v.1a1.61,1.61,0,0,1-1.84,1.76h-7c-1.33,0-2.05-.74-2.05-2.21Z"/><path d="M339.63,251.79a6.76,6.76,0,1,1-6.85,6.75A6.54,6.54,0,0,1,339.63,251.79Zm0,9.93a2.86,2.86,0,0,0,2.87-3.18c0-1.91-1.14-3.21-2.87-3.21s-2.88,1.24-2.88,3.21A2.86,2.86,0,0,0,339.63,261.72Z"/><path d="M349.89,254.29c0-1.44.72-2.22,2-2.22h3.43c3.7,0,5.73,1.6,5.73,4.7s-1.95,4.61-5.61,4.61h-1.57v1.89a1.63,1.63,0,0,1-1.76,1.86h-.58c-1.06,0-1.68-.64-1.68-1.86Zm5.43,4.17c1.22,0,1.86-.6,1.86-1.69s-.66-1.68-1.92-1.68h-1.41v3.37Z"/><path d="M364.19,253.83c0-1.26.58-1.86,1.68-1.86h.58c1.14,0,1.75.6,1.75,1.86v7.71h3.94c1.24,0,1.85.56,1.85,1.67v.06c0,1.14-.61,1.76-1.85,1.76h-5.91c-1.32,0-2-.74-2-2.21Z"/><path d="M377.25,254.29c0-1.44.72-2.22,2-2.22h6.89c1.28,0,1.87.64,1.87,1.68v.1c0,1.1-.59,1.68-1.87,1.68h-4.93v1.3h3.29c1.32,0,1.86.57,1.86,1.55v.06c0,1-.56,1.64-1.86,1.64h-3.29v1.5h5c1.26,0,1.85.54,1.85,1.59v.1a1.62,1.62,0,0,1-1.85,1.76h-7c-1.32,0-2-.74-2-2.21Z"/><path class="cls-1" d="M332.12,147.62c4.18,0,32.92-.81,37.89-2.1v-23c0-1.08-.18-1.26-1.26-1.26H357.8c-1.08,0-1.26.18-1.26,1.26v12.24a1.46,1.46,0,0,1-1.46,1.46H321.66a1.46,1.46,0,0,1-1.46-1.46V97.4c0-1.08-.18-1.25-1.26-1.25H307.23c-1.08,0-1.26.17-1.26,1.25v49c0,1.08.18,1.25,1.26,1.25Z"/><path class="cls-1" d="M257.93,95c-19.3,0-35.61,6.43-35.61,14v25.77c0,7.56,16.31,13.95,35.61,13.95s35.52-6.39,35.52-13.95V109C293.45,101.44,277.18,95,257.93,95Zm21.37,37.08c0,2.21-3.35,3.13-9.13,4a98,98,0,0,1-12.24,1,97.79,97.79,0,0,1-12.21-1c-7.67-1.13-9.17-2.32-9.17-4V111.76c0-1.64,1.5-2.81,9.17-3.92a99.46,99.46,0,0,1,12.21-1,99.45,99.45,0,0,1,12.23,1c7.65,1.11,9.14,2.28,9.14,3.92Z"/><path class="cls-1" d="M175.11,95c-19.3,0-35.61,6.43-35.61,14v25.77c0,7.56,16.31,13.95,35.61,13.95s35.52-6.39,35.52-13.95V109C210.63,101.44,194.36,95,175.11,95Zm21.38,37.08c0,2.21-3.36,3.13-9.14,4a98,98,0,0,1-12.24,1,97.79,97.79,0,0,1-12.21-1c-7.67-1.13-9.17-2.32-9.17-4V111.76c0-1.64,1.5-2.81,9.17-3.92a99.46,99.46,0,0,1,12.21-1,99.29,99.29,0,0,1,12.23,1c7.65,1.11,9.15,2.28,9.15,3.92Z"/><path class="cls-1" d="M82.42,96.15c-11.84,0-17.12,4.32-17.12,14v23.5c0,9.65,5.28,14,17.12,14H128c1.08,0,1.26-.17,1.26-1.25v-9c0-1.08-.18-1.26-1.26-1.26H85.67c-5,0-6.07-2.77-6.07-5.09v-18c0-2.4,1.05-5.25,6.07-5.25H128c1.08,0,1.26-.17,1.26-1.25V97.4c0-1.08-.18-1.25-1.26-1.25Z"/><path d="M128,150.55H82.42c-13.49,0-20.05-5.52-20.05-16.88v-23.5c0-11.4,6.56-17,20.05-17H128c2.7,0,4.19,1.49,4.19,4.18v9.15c0,2.7-1.49,4.18-4.19,4.18H85.67c-2.91,0-3.14,1-3.14,2.32v18c0,1,0,2.16,3.14,2.16H128c2.7,0,4.19,1.49,4.19,4.19v9C132.18,149.07,130.69,150.55,128,150.55ZM82.42,96.15c-11.84,0-17.12,4.32-17.12,14v23.5c0,9.65,5.28,14,17.12,14H128c1.08,0,1.26-.17,1.26-1.25v-9c0-1.08-.18-1.26-1.26-1.26H85.67c-5,0-6.07-2.77-6.07-5.09v-18c0-2.4,1.05-5.25,6.07-5.25H128c1.08,0,1.26-.17,1.26-1.25V97.4c0-1.08-.18-1.25-1.26-1.25Zm92.69,55.53c-18.94,0-38.53-6.31-38.53-16.87V109c0-10.61,19.59-17,38.53-17s38.45,6.34,38.45,17v25.77C213.56,145.37,194,151.68,175.11,151.68Zm0-56.67c-19.3,0-35.61,6.43-35.61,14v25.77c0,7.56,16.31,13.95,35.61,13.95s35.52-6.39,35.52-13.95V109C210.63,101.44,194.36,95,175.11,95Zm0,42.09a97.79,97.79,0,0,1-12.21-1c-7.67-1.13-9.17-2.32-9.17-4V111.76c0-1.64,1.5-2.81,9.17-3.92a99.46,99.46,0,0,1,12.21-1,99.29,99.29,0,0,1,12.23,1c7.65,1.11,9.15,2.28,9.15,3.92v20.33c0,2.21-3.36,3.13-9.14,4A98,98,0,0,1,175.11,137.1Zm-18.45-5.48c1.9,1,11.67,2.55,18.45,2.55,6.29,0,16.47-1.42,18.45-2.54V112.25c-1.95-1-11.71-2.5-18.45-2.5-5.67,0-16.33,1.35-18.45,2.5Zm101.27,20.06c-18.94,0-38.53-6.31-38.53-16.87V109c0-10.61,19.59-17,38.53-17s38.45,6.34,38.45,17v25.77C296.38,145.37,276.83,151.68,257.93,151.68Zm0-56.67c-19.3,0-35.61,6.43-35.61,14v25.77c0,7.56,16.31,13.95,35.61,13.95s35.52-6.39,35.52-13.95V109C293.45,101.44,277.18,95,257.93,95Zm0,42.09a97.79,97.79,0,0,1-12.21-1c-7.67-1.13-9.17-2.32-9.17-4V111.76c0-1.64,1.5-2.81,9.17-3.92a99.46,99.46,0,0,1,12.21-1,99.45,99.45,0,0,1,12.23,1c7.65,1.11,9.14,2.28,9.14,3.92v20.33c0,2.21-3.35,3.13-9.13,4A98,98,0,0,1,257.93,137.1Zm-18.45-5.48c1.9,1,11.67,2.55,18.45,2.55,6.29,0,16.47-1.42,18.45-2.54V112.25c-2-1-11.71-2.5-18.45-2.5-5.67,0-16.33,1.35-18.45,2.5Zm92.64,18.93H307.23c-2.7,0-4.18-1.48-4.18-4.18v-49c0-2.69,1.48-4.18,4.18-4.18h11.71c2.7,0,4.19,1.49,4.19,4.18v35.94h30.48V122.57c0-2.7,1.49-4.19,4.19-4.19h10.95c2.7,0,4.19,1.49,4.19,4.19v23.8c0,1.7-1.71,2.14-7.21,2.68-3.18.3-7.61.59-13.16.85C343.19,150.33,333.19,150.55,332.12,150.55Zm-24.89-54.4c-1.08,0-1.26.17-1.26,1.25v49c0,1.08.18,1.25,1.26,1.25h24.89c4.18,0,32.92-.81,37.89-2.1v-23c0-1.08-.18-1.26-1.26-1.26H357.8c-1.08,0-1.26.18-1.26,1.26v12.24a1.46,1.46,0,0,1-1.46,1.46H321.66a1.46,1.46,0,0,1-1.46-1.46V97.4c0-1.08-.18-1.25-1.26-1.25Z"/><path class="cls-1" d="M293.12,216.5h11.33c1.08,0,1.26-.18,1.26-1.26v-49c0-1.08-.18-1.26-1.26-1.26H293.12c-1.08,0-1.26.18-1.26,1.26v16.09a1.46,1.46,0,0,1-2.57,1l-14.65-16.77a3.73,3.73,0,0,0-3.36-1.54h-7.86c-1.08,0-1.25.18-1.25,1.26v49c0,1.08.17,1.26,1.25,1.26h11.34c1.08,0,1.25-.18,1.25-1.26V190.31a1.47,1.47,0,0,1,1-1.38,1.43,1.43,0,0,1,.5-.09,1.46,1.46,0,0,1,1.12.53L291.53,205a1.54,1.54,0,0,1,.33.94v9.29C291.86,216.32,292,216.5,293.12,216.5Z"/><path class="cls-1" d="M369.39,173.18a1.71,1.71,0,0,0-1,.18s-.18.22-.15,1l1.13,29.16c0,1.12.25,1.32,1.34,1.32h11.71c1.11,0,1.36-.24,1.41-1.32l1.05-29.16a1.74,1.74,0,0,0-.15-1,1.66,1.66,0,0,0-.95-.18Z"/><path class="cls-1" d="M203,216.5c1.08,0,1.26-.18,1.26-1.26v-20c0-2.85-.91-6.52-2.85-11.56l-6.58-17.15c-.35-1-.85-1.56-2.41-1.56H172.07c-1.62,0-2.13.56-2.47,1.51L163,183.73c-1.94,5-2.84,8.71-2.84,11.56v20c0,1.08.17,1.26,1.25,1.26h11.11c1.08,0,1.26-.18,1.26-1.26V204.66a1.46,1.46,0,0,1,1.46-1.46h13.37a1.46,1.46,0,0,1,1.47,1.46v10.58c0,.89,0,1.26,1.48,1.26Zm-13.93-24.72a1.49,1.49,0,0,1-1.18.59H176a1.46,1.46,0,0,1-1.39-1.89L178.16,179s0-.08,0-.13a3,3,0,0,1,2.79-2.18h1.89c.86,0,2,.38,2.79,2.18,0,0,0,.09,0,.13l3.56,11.49A1.5,1.5,0,0,1,189.05,191.78Z"/><path class="cls-1" d="M216.5,230.25h32.19c1.08,0,1.26-.17,1.26-1.25v-9c0-1.08-.18-1.25-1.26-1.25h-7.33a1.46,1.46,0,0,1-1.46-1.47V191.9a1.46,1.46,0,0,1,1.46-1.47h7.33c1.08,0,1.26-.17,1.26-1.26V180c0-1.08-.18-1.25-1.26-1.25H216.5c-1.08,0-1.25.17-1.25,1.25v9.14c0,1.09.17,1.26,1.25,1.26H224a1.47,1.47,0,0,1,1.47,1.47v25.38a1.47,1.47,0,0,1-1.47,1.47H216.5c-1.08,0-1.25.17-1.25,1.25v9C215.25,230.08,215.42,230.25,216.5,230.25Z"/><path class="cls-1" d="M319,230.25h23.87c9.14,0,14.18-4.2,14.18-11.83v-7.94c0-6.76-3.05-10-10.54-11.09l-11.24-1.51a3.67,3.67,0,0,1-3.31-3.87,3.46,3.46,0,0,1,3.51-3.73H353c1.08,0,1.26-.18,1.26-1.26v-9c0-1.08-.18-1.25-1.26-1.25H331.88c-9.15,0-14.18,4.2-14.18,11.83v7.93c0,6.78,3,10,10.46,11.1l11.32,1.58c1.46.18,3.23,1,3.23,4a3.43,3.43,0,0,1-3.43,3.66H319c-1.08,0-1.26.17-1.26,1.25V229C317.7,230.08,317.88,230.25,319,230.25Z"/><path class="cls-1" d="M75.74,165H51.64c-1.08,0-1.26.18-1.26,1.26v49c0,1.08.18,1.26,1.26,1.26h29c9.25,0,13.2-3.27,13.2-10.93v-6.95c0-6.66-2.45-9.72-8.19-10.26a1.46,1.46,0,0,1-.44-2.8c2.47-1.05,3.57-3.15,3.57-6.81v-3.63C88.79,168,84.88,165,75.74,165ZM64.46,176.4a1.46,1.46,0,0,1,1.46-1.46h6.42c2.76,0,4.34,1.63,4.34,4.49v2.11c0,2.85-1.58,4.49-4.34,4.49H65.92a1.46,1.46,0,0,1-1.46-1.47Zm15.62,25.69c0,2.85-1.58,4.49-4.34,4.49H65.92a1.46,1.46,0,0,1-1.46-1.46V196.2a1.46,1.46,0,0,1,1.46-1.46h9.82c2.8,0,4.34,1.56,4.34,4.41Z"/><rect class="cls-1" x="368.43" y="212.24" width="16.42" height="12.41" rx="1.26" ry="1.26"/><path class="cls-1" d="M136.21,230.25h11.71c1.08,0,1.26-.17,1.26-1.25V213c0-5.42-2.93-9-7.84-9.5a1.49,1.49,0,0,1-1.29-1.24,1.46,1.46,0,0,1,.87-1.56c2.35-1,3.35-3.18,3.35-7.27v-3.48c0-5.19-1.53-11.15-13.42-11.15H105.68c-1.08,0-1.25.17-1.25,1.25v49c0,1.08.17,1.25,1.25,1.25h11.64c1.08,0,1.26-.17,1.26-1.25V214.19a1.46,1.46,0,0,1,1.46-1.47h10.58c2.87,0,4.33,1.59,4.33,4.71V229C135,230.08,135.13,230.25,136.21,230.25Zm-5-33.22c0,4.37-3,5-4.79,5h-5.67a1.46,1.46,0,0,1-1.46-1.47v-9.67a1.46,1.46,0,0,1,1.46-1.46h5.67c1.79,0,4.79.65,4.79,5Z"/><path d="M80.65,219.42h-29c-2.7,0-4.19-1.48-4.19-4.18v-49c0-2.7,1.49-4.19,4.19-4.19h24.1c10.75,0,16,4.26,16,13v3.63c0,3.16-.78,5.63-2.33,7.38,5,1.6,7.4,5.72,7.4,12.49v6.95C96.78,214.89,91.5,219.42,80.65,219.42Zm-29-54.4c-1.08,0-1.26.18-1.26,1.26v49c0,1.08.18,1.26,1.26,1.26h29c9.25,0,13.2-3.27,13.2-10.93v-6.95c0-6.66-2.45-9.72-8.19-10.26a1.46,1.46,0,0,1-.44-2.8c2.47-1.05,3.57-3.15,3.57-6.81v-3.63c0-7.08-3.91-10.1-13.05-10.1Zm24.1,41.56H65.92a1.46,1.46,0,0,1-1.46-1.46V196.2a1.46,1.46,0,0,1,1.46-1.46h9.82c2.8,0,4.34,1.56,4.34,4.41v2.94C80.08,204.94,78.5,206.58,75.74,206.58Zm-8.36-2.93h8.36c1.06,0,1.41-.22,1.41-1.56v-2.94c0-1.29-.32-1.49-1.41-1.49H67.38Zm5-17.62H65.92a1.46,1.46,0,0,1-1.46-1.47V176.4a1.46,1.46,0,0,1,1.46-1.46h6.42c2.76,0,4.34,1.63,4.34,4.49v2.11C76.68,184.39,75.1,186,72.34,186Zm-5-2.93h5c1.06,0,1.41-.23,1.41-1.56v-2.11c0-1.34-.35-1.56-1.41-1.56h-5Zm80.54,50.08H136.21c-2.7,0-4.18-1.49-4.18-4.18V217.43c0-1.78-.42-1.78-1.41-1.78H121.5V229c0,2.69-1.48,4.18-4.18,4.18H105.68c-2.69,0-4.18-1.49-4.18-4.18V180c0-2.69,1.49-4.18,4.18-4.18h25.17c10.84,0,16.34,4.74,16.34,14.08v3.48c0,2.46-.28,5.64-2.28,7.93,4.51,1.73,7.2,5.95,7.2,11.64v16C152.11,231.69,150.62,233.18,147.92,233.18ZM120,212.72h10.58c2.87,0,4.33,1.59,4.33,4.71V229c0,1.08.18,1.25,1.26,1.25h11.71c1.08,0,1.26-.17,1.26-1.25V213c0-5.42-2.93-9-7.84-9.5a1.49,1.49,0,0,1-1.29-1.24,1.46,1.46,0,0,1,.87-1.56c2.35-1,3.35-3.18,3.35-7.27v-3.48c0-5.19-1.53-11.15-13.42-11.15H105.68c-1.08,0-1.25.17-1.25,1.25v49c0,1.08.17,1.25,1.25,1.25h11.64c1.08,0,1.26-.17,1.26-1.25V214.19A1.46,1.46,0,0,1,120,212.72Zm6.4-10.67h-5.67a1.46,1.46,0,0,1-1.46-1.47v-9.67a1.46,1.46,0,0,1,1.46-1.46h5.67c1.79,0,4.79.65,4.79,5V197C131.23,201.4,128.23,202.05,126.44,202.05Zm-4.2-2.93h4.2c1.37,0,1.86-.31,1.86-2.09v-2.57c0-1.77-.49-2.08-1.86-2.08h-4.2ZM203,219.42H191.57c-3.84,0-4.41-2.62-4.41-4.18v-9.11H176.71v9.11c0,2.7-1.48,4.18-4.18,4.18H161.42c-2.7,0-4.18-1.48-4.18-4.18v-20c0-3.26.94-7.15,3-12.61l6.58-17.15c.78-2.27,2.54-3.44,5.21-3.44H192.4a5,5,0,0,1,5.16,3.48l6.56,17.11c2.1,5.45,3,9.35,3,12.61v20C207.16,217.94,205.68,219.42,203,219.42ZM175.25,203.2h13.37a1.46,1.46,0,0,1,1.47,1.46v10.58c0,.89,0,1.26,1.48,1.26H203c1.08,0,1.26-.18,1.26-1.26v-20c0-2.85-.91-6.52-2.85-11.56l-6.58-17.15c-.35-1-.85-1.56-2.41-1.56H172.07c-1.62,0-2.13.56-2.47,1.51L163,183.73c-1.94,5-2.84,8.71-2.84,11.56v20c0,1.08.17,1.26,1.25,1.26h11.11c1.08,0,1.26-.18,1.26-1.26V204.66A1.46,1.46,0,0,1,175.25,203.2Zm12.62-10.83H176a1.46,1.46,0,0,1-1.39-1.89L178.16,179s0-.08,0-.13a3,3,0,0,1,2.79-2.18h1.89c.86,0,2,.38,2.79,2.18,0,0,0,.09,0,.13l3.56,11.49a1.5,1.5,0,0,1-.22,1.3A1.49,1.49,0,0,1,187.87,192.37ZM178,189.45h7.89l-2.94-9.52a1.38,1.38,0,0,0-.17-.32H181.1a2,2,0,0,0-.17.32Zm70.7,43.73H216.5c-2.7,0-4.18-1.49-4.18-4.18v-9c0-2.69,1.48-4.18,4.18-4.18h6V193.36h-6c-2.7,0-4.18-1.49-4.18-4.19V180c0-2.69,1.48-4.18,4.18-4.18h32.19c2.7,0,4.18,1.49,4.18,4.18v9.14c0,2.7-1.48,4.19-4.18,4.19h-5.86v22.46h5.86c2.7,0,4.18,1.49,4.18,4.18v9C252.87,231.69,251.39,233.18,248.69,233.18ZM216.5,218.75c-1.08,0-1.25.17-1.25,1.25v9c0,1.08.17,1.25,1.25,1.25h32.19c1.08,0,1.26-.17,1.26-1.25v-9c0-1.08-.18-1.25-1.26-1.25h-7.33a1.46,1.46,0,0,1-1.46-1.47V191.9a1.46,1.46,0,0,1,1.46-1.47h7.33c1.08,0,1.26-.17,1.26-1.26V180c0-1.08-.18-1.25-1.26-1.25H216.5c-1.08,0-1.25.17-1.25,1.25v9.14c0,1.09.17,1.26,1.25,1.26H224a1.47,1.47,0,0,1,1.47,1.47v25.38a1.47,1.47,0,0,1-1.47,1.47Zm87.95.67H293.12c-2.7,0-4.19-1.48-4.19-4.18v-8.77l-10-12.09v20.86c0,2.7-1.49,4.18-4.18,4.18H263.42c-2.7,0-4.18-1.48-4.18-4.18v-49c0-2.7,1.48-4.19,4.18-4.19h7.86a6.58,6.58,0,0,1,5.57,2.56l12.08,13.82V166.28c0-2.7,1.49-4.19,4.19-4.19h11.33c2.7,0,4.18,1.49,4.18,4.19v49C308.63,217.94,307.15,219.42,304.45,219.42Zm-27-30.58a1.46,1.46,0,0,1,1.12.53L291.53,205a1.54,1.54,0,0,1,.33.94v9.29c0,1.08.18,1.26,1.26,1.26h11.33c1.08,0,1.26-.18,1.26-1.26v-49c0-1.08-.18-1.26-1.26-1.26H293.12c-1.08,0-1.26.18-1.26,1.26v16.09a1.46,1.46,0,0,1-2.57,1l-14.65-16.77a3.73,3.73,0,0,0-3.36-1.54h-7.86c-1.08,0-1.25.18-1.25,1.26v49c0,1.08.17,1.26,1.25,1.26h11.34c1.08,0,1.25-.18,1.25-1.26V190.31a1.47,1.47,0,0,1,1-1.38A1.43,1.43,0,0,1,277.48,188.84Zm65.35,44.34H319c-2.7,0-4.19-1.49-4.19-4.18v-8.85c0-2.69,1.49-4.18,4.19-4.18h20.32c.16,0,.5,0,.5-.73,0-1-.18-1.05-.67-1.11l-11.37-1.59c-11.62-1.73-13-8.82-13-14v-7.93c0-9.24,6.4-14.76,17.11-14.76H353c2.7,0,4.19,1.49,4.19,4.18v9c0,2.7-1.49,4.19-4.19,4.19h-17.6c-.23,0-.58,0-.58.8s.36.92.75,1l11.28,1.52c5.62.84,13.06,3.19,13.06,14v7.94C359.94,227.66,353.54,233.18,342.83,233.18ZM319,218.9c-1.08,0-1.26.17-1.26,1.25V229c0,1.08.18,1.25,1.26,1.25h23.87c9.14,0,14.18-4.2,14.18-11.83v-7.94c0-6.76-3.05-10-10.54-11.09l-11.24-1.51a3.67,3.67,0,0,1-3.31-3.87,3.46,3.46,0,0,1,3.51-3.73H353c1.08,0,1.26-.18,1.26-1.26v-9c0-1.08-.18-1.25-1.26-1.25H331.88c-9.15,0-14.18,4.2-14.18,11.83v7.93c0,6.78,3,10,10.46,11.1l11.32,1.58c1.46.18,3.23,1,3.23,4a3.43,3.43,0,0,1-3.43,3.66Zm64.63,8.68h-13.9c-2.7,0-4.19-1.49-4.19-4.18v-9.9c0-2.74,1.45-4.18,4.19-4.18h13.9c2.74,0,4.18,1.44,4.18,4.18v9.9C387.77,226.09,386.29,227.58,383.59,227.58Zm-13.9-15.34c-1.12,0-1.26.14-1.26,1.26v9.9c0,1.08.18,1.25,1.26,1.25h13.9c1.08,0,1.26-.17,1.26-1.25v-9.9c0-1.12-.14-1.26-1.26-1.26Zm12.77-4.46H370.75c-2.68,0-4.16-1.42-4.26-4.12l-1.14-29.17a4.13,4.13,0,0,1,1-3.15,4.05,4.05,0,0,1,3.07-1.09h14.43a4,4,0,0,1,3.06,1.09,4.09,4.09,0,0,1,1,3.15l-1.06,29.16C386.68,206.32,385.14,207.78,382.46,207.78Zm-13.07-34.6a1.71,1.71,0,0,0-1,.18s-.18.22-.15,1l1.13,29.16c0,1.12.25,1.32,1.34,1.32h11.71c1.11,0,1.36-.24,1.41-1.32l1.05-29.16a1.74,1.74,0,0,0-.15-1,1.66,1.66,0,0,0-.95-.18Z"/><path d="M149.57,57.1c0-1.88.87-2.82,2.54-2.82H153c1.73,0,2.64.94,2.64,2.82V71.37c0,1.85-.91,2.82-2.64,2.82h-.88c-1.67,0-2.54-1-2.54-2.82Z"/><path d="M161.65,57.1c0-1.88.94-2.82,2.49-2.82h.57a3,3,0,0,1,2.73,1.42l7,9.15V57.1c0-1.85.91-2.82,2.64-2.82h.51c1.67,0,2.55,1,2.55,2.82V71.37c0,1.88-.94,2.82-2.46,2.82h-.48a2.85,2.85,0,0,1-2.7-1.34l-7.18-9.3v7.82c0,1.85-.91,2.82-2.64,2.82h-.51c-1.67,0-2.55-1-2.55-2.82Z"/><path d="M186,57.79c0-2.18,1.09-3.36,3.09-3.36h5.18c5.61,0,8.67,2.42,8.67,7.12s-2.94,7-8.48,7h-2.37v2.85c0,1.79-.91,2.82-2.66,2.82h-.88c-1.61,0-2.55-1-2.55-2.82Zm8.21,6.31c1.85,0,2.82-.91,2.82-2.55S196,59,194.1,59H192v5.1Z"/><path d="M207.61,57.79c0-2.18,1.1-3.36,3.1-3.36h6.06c5.45,0,8.18,2.24,8.18,6.42a5.61,5.61,0,0,1-4.24,5.76l4.42,5.49c.18.24-.88,2.09-3.49,2.09-1.87,0-2.81-.82-4.09-2.58l-2.78-3.7h-1.1v3.46c0,1.82-.9,2.82-2.66,2.82h-.85c-1.67,0-2.55-1.31-2.55-3.52Zm8.52,5.82c1.82,0,2.73-.82,2.73-2.27S218,59,216.07,59h-2.49v4.58Z"/><path d="M230.55,57.1c0-1.88.88-2.82,2.54-2.82H234c1.73,0,2.64.94,2.64,2.82V71.37c0,1.85-.91,2.82-2.64,2.82h-.88c-1.66,0-2.54-1-2.54-2.82Z"/><path d="M242.64,57.1c0-1.88.94-2.82,2.48-2.82h.58a2.93,2.93,0,0,1,2.72,1.42l7,9.15V57.1c0-1.85.91-2.82,2.63-2.82h.52c1.66,0,2.54,1,2.54,2.82V71.37c0,1.88-.94,2.82-2.45,2.82h-.49a2.82,2.82,0,0,1-2.69-1.34l-7.19-9.3v7.82c0,1.85-.91,2.82-2.63,2.82h-.52c-1.66,0-2.54-1-2.54-2.82Z"/><path d="M272,59.7h-3.3c-1.82,0-2.79-.94-2.79-2.67v-.09c0-1.66,1-2.51,2.79-2.51h12.58c1.88,0,2.82.85,2.82,2.51V57c0,1.73-.94,2.67-2.82,2.67h-3.18V71.37a2.49,2.49,0,0,1-2.73,2.82h-.85c-1.67,0-2.52-1-2.52-2.82Z"/></svg>