<svg id="Layer_1" data-name="Layer 1" xmlns="http://www.w3.org/2000/svg" viewBox="0 0 435 325"><defs><style>.cls-1{fill:#231f20;}</style></defs><title>Artboard 5</title><rect class="cls-1" x="72.71" y="161.12" width="57.56" height="12.88"/><path class="cls-1" d="M112.36,111.13c12.1,0,22,9.29,22,20.6s-9.94,20.59-22,20.59-22-9.15-22-20.59S100.19,111.13,112.36,111.13Zm0,29.38a8.8,8.8,0,1,0-9.22-8.78A9,9,0,0,0,112.36,140.51Z"/><path class="cls-1" d="M139.68,111.64H160c8.71,0,15.7,6.48,15.7,14.4a12.25,12.25,0,0,1-7.13,11.45l10.73,14.33H164.66l-8.49-11.45h-3.6v11.45H139.68Zm18.86,18.57c3,0,4.39-1.08,4.39-3.74a3.13,3.13,0,0,0-3.31-3.17h-7.05v6.91Z"/><path class="cls-1" d="M206.06,109.33l24.19,42.49h-13.1l-2.66-4.54H197.71l-2.59,4.54H181.87Zm4.18,28.88-4.18-7.78-4.1,7.78Z"/><path class="cls-1" d="M233.35,110.12l28,20.16V111.64H273.6v41.69l-27.94-20.16v18.65H233.35Z"/><path class="cls-1" d="M302.9,111.13a23.79,23.79,0,0,1,17.79,7.78L311.9,126a12.91,12.91,0,0,0-9-3.39c-5.83,0-10.58,3.82-10.58,9.15s4.75,9.07,10.58,9.07a10.93,10.93,0,0,0,8.35-3.31v-.43H300.6V126.54h21.6v16.13c-3.75,5.62-10.95,9.65-19.3,9.65-13,0-23.47-8.64-23.47-20.52S289.94,111.13,302.9,111.13Z"/><path class="cls-1" d="M328.39,111.64h32.76v11.44h-20v3.68h18.65v10.15H341.13v3.74h20.52v11.17H328.39Z"/><path class="cls-1" d="M139.68,161.12l28.78,28.71,28.78-28.71v54.55H183.9V191.94l-15.44,15.67L153,191.94v23.73H139.68Z"/><path class="cls-1" d="M231.81,159.62l29.08,56H246l-3.4-6.86H221l-3.39,6.86H202.73Zm5.95,38.12-5.95-12.13-5.95,12.13Z"/><path class="cls-1" d="M266.39,163.16h21.32c18.83,0,28.18,11.37,28.18,26.37,0,15.44-9.27,26.14-28.11,26.14H266.39Zm20.49,39.55c12.58,0,14.62-6.18,14.62-13.18s-2-12.81-14.7-12.81h-6.1v26Z"/><path class="cls-1" d="M323,163.16h38.73V176H337.28v7.23H360V195H337.28v8h25v12.66H323Z"/></svg>